<?xml version="1.0" encoding="UTF-8"?>
<svg xmlns="http://www.w3.org/2000/svg" version="1.1" xmlns:xlink="http://www.w3.org/1999/xlink" viewBox="0 0 540 288">
  <!-- Generator: Adobe Illustrator 29.4.0, SVG Export Plug-In . SVG Version: 2.1.0 Build 152)  -->
  <defs>
    <style>
      .st0 {
        fill: url(#radial-gradient3);
      }

      .st0, .st1 {
        mix-blend-mode: screen;
      }

      .st1 {
        fill: url(#radial-gradient1);
      }

      .st2 {
        fill: none;
      }

      .st3 {
        isolation: isolate;
      }

      .st4 {
        fill: url(#radial-gradient2);
      }

      .st4, .st5 {
        mix-blend-mode: color-dodge;
      }

      .st5 {
        fill: url(#radial-gradient);
      }

      .st6 {
        fill: #02183d;
      }

      .st7 {
        clip-path: url(#clippath);
      }

      .st8 {
        fill: #3aa9ff;
      }
    </style>
    <clipPath id="clippath">
      <rect class="st2" x="0" width="540" height="288"/>
    </clipPath>
    <radialGradient id="radial-gradient" cx="97.05" cy="162.86" fx="97.05" fy="162.86" r="116.33" gradientTransform="translate(143.59 -20.92) rotate(45)" gradientUnits="userSpaceOnUse">
      <stop offset="0" stop-color="#002438"/>
      <stop offset=".3" stop-color="#001622"/>
      <stop offset=".74" stop-color="#000609"/>
      <stop offset="1" stop-color="#000"/>
    </radialGradient>
    <radialGradient id="radial-gradient1" cy="162.86" fy="162.86" r="147.97" gradientTransform="matrix(1,0,0,1,0,0)" xlink:href="#radial-gradient"/>
    <radialGradient id="radial-gradient2" cx="474.62" cy="49.76" fx="474.62" fy="49.76" r="116.33" gradientTransform="translate(174.2 -321.03) rotate(45)" xlink:href="#radial-gradient"/>
    <radialGradient id="radial-gradient3" cx="474.62" cy="49.76" fx="474.62" fy="49.76" r="147.97" gradientTransform="matrix(1,0,0,1,0,0)" xlink:href="#radial-gradient"/>
  </defs>
  <g class="st3">
    <g id="Layer_1">
      <g>
        <rect class="st6" x="0" width="540" height="288"/>
        <g class="st7">
          <g>
            <g>
              <path class="st8" d="M339.1,8.51c-.21,0-.38-.17-.38-.38v-30.69c0-.21.17-.38.37-.38s.38.17.38.38V8.14c0,.21-.17.38-.37.38Z"/>
              <path class="st8" d="M341.92,8.14c0,1.56-1.26,2.82-2.82,2.82-1.56,0-2.82-1.26-2.82-2.82s1.26-2.82,2.82-2.82,2.82,1.26,2.82,2.82Z"/>
            </g>
            <g>
              <path class="st8" d="M339.09,8.51c-.21,0-.38-.17-.38-.38v-30.69c0-.21.17-.38.38-.38s.38.17.38.38V8.14c0,.21-.17.38-.38.38Z"/>
              <circle class="st8" cx="339.09" cy="8.14" r="2.82"/>
            </g>
            <g>
              <path class="st8" d="M365.67,23.86c-.06,0-.13-.02-.19-.05l-26.58-15.35c-.18-.1-.24-.33-.14-.51.1-.18.33-.24.51-.14l26.58,15.35c.18.1.24.33.14.51-.07.12-.2.19-.33.19Z"/>
              <path class="st8" d="M337.68,10.58c-1.35-.78-1.81-2.5-1.03-3.85s2.5-1.81,3.85-1.03c1.35.78,1.81,2.5,1.03,3.85-.78,1.35-2.5,1.81-3.85,1.03Z"/>
              <path class="st8" d="M364.26,25.93c1.35.78,3.07.32,3.85-1.03.78-1.35.32-3.07-1.03-3.85-1.35-.78-3.07-.32-3.85,1.03-.78,1.35-.32,3.07,1.03,3.85Z"/>
            </g>
            <g>
              <path class="st8" d="M365.67,23.86c-.13,0-.26-.07-.33-.19-.1-.18-.04-.41.14-.51l26.58-15.35c.18-.1.41-.04.51.14s.04.41-.14.51l-26.58,15.35c-.06.03-.12.05-.19.05Z"/>
              <path class="st8" d="M367.08,25.93c-1.35.78-3.07.32-3.85-1.03-.78-1.35-.32-3.07,1.03-3.85,1.35-.78,3.07-.32,3.85,1.03.78,1.35.32,3.07-1.03,3.85Z"/>
              <path class="st8" d="M393.67,10.58c1.35-.78,1.81-2.5,1.03-3.85-.78-1.35-2.5-1.81-3.85-1.03-1.35.78-1.81,2.5-1.03,3.85.78,1.35,2.5,1.81,3.85,1.03Z"/>
            </g>
            <g>
              <path class="st8" d="M392.26,8.51c-.21,0-.38-.17-.38-.38v-30.69c0-.21.17-.38.37-.38s.38.17.38.38V8.14c0,.21-.17.38-.37.38Z"/>
              <path class="st8" d="M395.08,8.14c0,1.56-1.26,2.82-2.82,2.82-1.56,0-2.82-1.26-2.82-2.82s1.26-2.82,2.82-2.82,2.82,1.26,2.82,2.82Z"/>
            </g>
            <g>
              <path class="st8" d="M392.25,8.51c-.21,0-.38-.17-.38-.38v-30.69c0-.21.17-.38.38-.38s.38.17.38.38V8.14c0,.21-.17.38-.38.38Z"/>
              <path class="st8" d="M395.07,8.14c0,1.56-1.26,2.82-2.82,2.82s-2.82-1.26-2.82-2.82,1.26-2.82,2.82-2.82,2.82,1.26,2.82,2.82Z"/>
            </g>
            <g>
              <path class="st8" d="M418.83,23.86c-.06,0-.13-.02-.19-.05l-26.58-15.35c-.18-.1-.24-.33-.14-.51.1-.18.33-.24.51-.14l26.58,15.35c.18.1.24.33.14.51-.07.12-.2.19-.33.19Z"/>
              <path class="st8" d="M390.84,10.58c-1.35-.78-1.81-2.5-1.03-3.85.78-1.35,2.5-1.81,3.85-1.03,1.35.78,1.81,2.5,1.03,3.85-.78,1.35-2.5,1.81-3.85,1.03Z"/>
              <path class="st8" d="M417.42,25.93c1.35.78,3.07.32,3.85-1.03.78-1.35.32-3.07-1.03-3.85-1.35-.78-3.07-.32-3.85,1.03-.78,1.35-.32,3.07,1.03,3.85Z"/>
            </g>
            <g>
              <path class="st8" d="M418.83,23.86c-.13,0-.26-.07-.33-.19-.1-.18-.04-.41.14-.51l26.58-15.35c.18-.1.41-.04.51.14.1.18.04.41-.14.51l-26.58,15.35c-.06.03-.12.05-.19.05Z"/>
              <path class="st8" d="M420.24,25.93c-1.35.78-3.07.32-3.85-1.03-.78-1.35-.32-3.07,1.03-3.85,1.35-.78,3.07-.32,3.85,1.03.78,1.35.32,3.07-1.03,3.85Z"/>
              <path class="st8" d="M446.82,10.58c1.35-.78,1.81-2.5,1.03-3.85-.78-1.35-2.5-1.81-3.85-1.03-1.35.78-1.81,2.5-1.03,3.85s2.5,1.81,3.85,1.03Z"/>
            </g>
            <g>
              <path class="st8" d="M445.41,8.51c-.21,0-.38-.17-.38-.38v-30.69c0-.21.17-.38.37-.38s.38.17.38.38V8.14c0,.21-.17.38-.37.38Z"/>
              <path class="st8" d="M448.23,8.14c0,1.56-1.26,2.82-2.82,2.82-1.56,0-2.82-1.26-2.82-2.82,0-1.56,1.26-2.82,2.82-2.82s2.82,1.26,2.82,2.82Z"/>
            </g>
            <g>
              <path class="st8" d="M445.41,8.51c-.21,0-.38-.17-.38-.38v-30.69c0-.21.17-.38.38-.38s.38.17.38.38V8.14c0,.21-.17.38-.38.38Z"/>
              <circle class="st8" cx="445.41" cy="8.14" r="2.82"/>
            </g>
            <g>
              <path class="st8" d="M471.99,23.86c-.06,0-.13-.02-.19-.05l-26.58-15.35c-.18-.1-.24-.33-.14-.51.1-.18.33-.24.51-.14l26.58,15.35c.18.1.24.33.14.51-.07.12-.2.19-.33.19Z"/>
              <path class="st8" d="M444,10.58c-1.35-.78-1.81-2.5-1.03-3.85.78-1.35,2.5-1.81,3.85-1.03,1.35.78,1.81,2.5,1.03,3.85-.78,1.35-2.5,1.81-3.85,1.03Z"/>
              <path class="st8" d="M470.58,25.93c1.35.78,3.07.32,3.85-1.03.78-1.35.32-3.07-1.03-3.85-1.35-.78-3.07-.32-3.85,1.03-.78,1.35-.32,3.07,1.03,3.85Z"/>
            </g>
            <g>
              <path class="st8" d="M471.99,23.86c-.13,0-.26-.07-.33-.19-.1-.18-.04-.41.14-.51l26.58-15.35c.18-.1.41-.04.51.14s.04.41-.14.51l-26.58,15.35c-.06.03-.12.05-.19.05Z"/>
              <path class="st8" d="M473.4,25.93c-1.35.78-3.07.32-3.85-1.03-.78-1.35-.32-3.07,1.03-3.85,1.35-.78,3.07-.32,3.85,1.03.78,1.35.32,3.07-1.03,3.85Z"/>
              <path class="st8" d="M499.98,10.58c1.35-.78,1.81-2.5,1.03-3.85s-2.5-1.81-3.85-1.03c-1.35.78-1.81,2.5-1.03,3.85.78,1.35,2.5,1.81,3.85,1.03Z"/>
            </g>
            <g>
              <path class="st8" d="M525.14,23.86c-.06,0-.13-.02-.19-.05l-26.58-15.35c-.18-.1-.24-.33-.14-.51s.33-.24.51-.14l26.58,15.35c.18.1.24.33.14.51-.07.12-.2.19-.33.19Z"/>
              <path class="st8" d="M497.15,10.58c-1.35-.78-1.81-2.5-1.03-3.85.78-1.35,2.5-1.81,3.85-1.03,1.35.78,1.81,2.5,1.03,3.85-.78,1.35-2.5,1.81-3.85,1.03Z"/>
              <path class="st8" d="M523.73,25.93c1.35.78,3.07.32,3.85-1.03.78-1.35.32-3.07-1.03-3.85-1.35-.78-3.07-.32-3.85,1.03-.78,1.35-.32,3.07,1.03,3.85Z"/>
            </g>
            <g>
              <path class="st8" d="M365.67,54.55c-.21,0-.38-.17-.38-.38v-30.69c0-.21.17-.38.37-.38s.38.17.38.38v30.69c0,.21-.17.38-.37.38Z"/>
              <path class="st8" d="M368.49,54.18c0,1.56-1.26,2.82-2.82,2.82-1.56,0-2.82-1.26-2.82-2.82s1.26-2.82,2.82-2.82,2.82,1.26,2.82,2.82Z"/>
              <path class="st8" d="M368.49,23.48c0-1.56-1.26-2.82-2.82-2.82s-2.82,1.26-2.82,2.82c0,1.56,1.26,2.82,2.82,2.82,1.56,0,2.82-1.26,2.82-2.82Z"/>
            </g>
            <g>
              <path class="st8" d="M365.67,23.86c-.06,0-.13-.02-.19-.05l-26.58-15.35c-.18-.1-.24-.33-.14-.51.1-.18.33-.24.51-.14l26.58,15.35c.18.1.24.33.14.51-.07.12-.2.19-.33.19Z"/>
              <path class="st8" d="M367.08,21.04c1.35.78,1.81,2.5,1.03,3.85-.78,1.35-2.5,1.81-3.85,1.03-1.35-.78-1.81-2.5-1.03-3.85.78-1.35,2.5-1.81,3.85-1.03Z"/>
              <path class="st8" d="M340.5,5.7c-1.35-.78-3.07-.32-3.85,1.03-.78,1.35-.32,3.07,1.03,3.85,1.35.78,3.07.32,3.85-1.03.78-1.35.32-3.07-1.03-3.85Z"/>
            </g>
            <g>
              <path class="st8" d="M365.67,54.55c-.21,0-.38-.17-.38-.38v-30.69c0-.21.17-.38.38-.38s.38.17.38.38v30.69c0,.21-.17.38-.38.38Z"/>
              <path class="st8" d="M368.49,54.18c0,1.56-1.26,2.82-2.82,2.82s-2.82-1.26-2.82-2.82,1.26-2.82,2.82-2.82,2.82,1.26,2.82,2.82Z"/>
              <path class="st8" d="M368.49,23.48c0-1.56-1.26-2.82-2.82-2.82s-2.82,1.26-2.82,2.82,1.26,2.82,2.82,2.82,2.82-1.26,2.82-2.82Z"/>
            </g>
            <g>
              <path class="st8" d="M392.25,69.9c-.06,0-.13-.02-.19-.05l-26.58-15.35c-.18-.1-.24-.33-.14-.51.1-.18.33-.24.51-.14l26.58,15.35c.18.1.24.33.14.51-.07.12-.2.19-.33.19Z"/>
              <path class="st8" d="M364.26,56.62c-1.35-.78-1.81-2.5-1.03-3.85.78-1.35,2.5-1.81,3.85-1.03,1.35.78,1.81,2.5,1.03,3.85-.78,1.35-2.5,1.81-3.85,1.03Z"/>
              <path class="st8" d="M390.84,71.97c1.35.78,3.07.32,3.85-1.03.78-1.35.32-3.07-1.03-3.85-1.35-.78-3.07-.32-3.85,1.03-.78,1.35-.32,3.07,1.03,3.85Z"/>
            </g>
            <g>
              <path class="st8" d="M392.25,69.9c-.13,0-.26-.07-.33-.19-.1-.18-.04-.41.14-.51l26.58-15.35c.18-.1.41-.04.51.14.1.18.04.41-.14.51l-26.58,15.35c-.06.03-.12.05-.19.05Z"/>
              <path class="st8" d="M393.66,71.97c-1.35.78-3.07.32-3.85-1.03-.78-1.35-.32-3.07,1.03-3.85,1.35-.78,3.07-.32,3.85,1.03.78,1.35.32,3.07-1.03,3.85Z"/>
              <path class="st8" d="M420.24,56.62c1.35-.78,1.81-2.5,1.03-3.85s-2.5-1.81-3.85-1.03c-1.35.78-1.81,2.5-1.03,3.85.78,1.35,2.5,1.81,3.85,1.03Z"/>
            </g>
            <g>
              <path class="st8" d="M418.83,54.55c-.21,0-.38-.17-.38-.38v-30.69c0-.21.17-.38.38-.38s.38.17.38.38v30.69c0,.21-.17.38-.38.38Z"/>
              <path class="st8" d="M421.65,54.18c0,1.56-1.26,2.82-2.82,2.82-1.56,0-2.82-1.26-2.82-2.82s1.26-2.82,2.82-2.82,2.82,1.26,2.82,2.82Z"/>
              <path class="st8" d="M421.65,23.48c0-1.56-1.26-2.82-2.82-2.82s-2.82,1.26-2.82,2.82,1.26,2.82,2.82,2.82c1.56,0,2.82-1.26,2.82-2.82Z"/>
            </g>
            <g>
              <path class="st8" d="M418.82,23.86c-.06,0-.13-.02-.19-.05l-26.58-15.35c-.18-.1-.24-.33-.14-.51.1-.18.33-.24.51-.14l26.58,15.35c.18.1.24.33.14.51-.07.12-.2.19-.33.19Z"/>
              <path class="st8" d="M420.24,21.04c1.35.78,1.81,2.5,1.03,3.85-.78,1.35-2.5,1.81-3.85,1.03-1.35-.78-1.81-2.5-1.03-3.85.78-1.35,2.5-1.81,3.85-1.03Z"/>
              <path class="st8" d="M393.66,5.7c-1.35-.78-3.07-.32-3.85,1.03-.78,1.35-.32,3.07,1.03,3.85,1.35.78,3.07.32,3.85-1.03.78-1.35.32-3.07-1.03-3.85Z"/>
            </g>
            <g>
              <path class="st8" d="M365.67,23.86c-.13,0-.26-.07-.33-.19-.1-.18-.04-.41.14-.51l26.58-15.35c.18-.1.41-.04.51.14.1.18.04.41-.14.51l-26.58,15.35c-.06.03-.12.05-.19.05Z"/>
              <path class="st8" d="M390.84,5.7c1.35-.78,3.07-.32,3.85,1.03.78,1.35.32,3.07-1.03,3.85-1.35.78-3.07.32-3.85-1.03-.78-1.35-.32-3.07,1.03-3.85Z"/>
              <path class="st8" d="M364.26,21.04c-1.35.78-1.81,2.5-1.03,3.85.78,1.35,2.5,1.81,3.85,1.03,1.35-.78,1.81-2.5,1.03-3.85-.78-1.35-2.5-1.81-3.85-1.03Z"/>
            </g>
            <g>
              <path class="st8" d="M418.83,54.55c-.21,0-.38-.17-.38-.38v-30.69c0-.21.17-.38.38-.38s.38.17.38.38v30.69c0,.21-.17.38-.38.38Z"/>
              <path class="st8" d="M421.65,54.18c0,1.56-1.26,2.82-2.82,2.82s-2.82-1.26-2.82-2.82,1.26-2.82,2.82-2.82,2.82,1.26,2.82,2.82Z"/>
              <path class="st8" d="M421.65,23.48c0-1.56-1.26-2.82-2.82-2.82s-2.82,1.26-2.82,2.82,1.26,2.82,2.82,2.82,2.82-1.26,2.82-2.82Z"/>
            </g>
            <g>
              <path class="st8" d="M445.41,69.9c-.06,0-.13-.02-.19-.05l-26.58-15.35c-.18-.1-.24-.33-.14-.51.1-.18.33-.24.51-.14l26.58,15.35c.18.1.24.33.14.51-.07.12-.2.19-.33.19Z"/>
              <path class="st8" d="M417.42,56.62c-1.35-.78-1.81-2.5-1.03-3.85s2.5-1.81,3.85-1.03c1.35.78,1.81,2.5,1.03,3.85s-2.5,1.81-3.85,1.03Z"/>
              <path class="st8" d="M444,71.97c1.35.78,3.07.32,3.85-1.03.78-1.35.32-3.07-1.03-3.85-1.35-.78-3.07-.32-3.85,1.03s-.32,3.07,1.03,3.85Z"/>
            </g>
            <g>
              <path class="st8" d="M445.41,69.9c-.13,0-.26-.07-.33-.19-.1-.18-.04-.41.14-.51l26.58-15.35c.18-.1.41-.04.51.14.1.18.04.41-.14.51l-26.58,15.35c-.06.03-.12.05-.19.05Z"/>
              <path class="st8" d="M446.82,71.97c-1.35.78-3.07.32-3.85-1.03-.78-1.35-.32-3.07,1.03-3.85,1.35-.78,3.07-.32,3.85,1.03.78,1.35.32,3.07-1.03,3.85Z"/>
              <path class="st8" d="M473.4,56.62c1.35-.78,1.81-2.5,1.03-3.85-.78-1.35-2.5-1.81-3.85-1.03-1.35.78-1.81,2.5-1.03,3.85.78,1.35,2.5,1.81,3.85,1.03Z"/>
            </g>
            <g>
              <path class="st8" d="M471.99,54.55c-.21,0-.38-.17-.38-.38v-30.69c0-.21.17-.38.37-.38s.38.17.38.38v30.69c0,.21-.17.38-.37.38Z"/>
              <path class="st8" d="M474.81,54.18c0,1.56-1.26,2.82-2.82,2.82-1.56,0-2.82-1.26-2.82-2.82s1.26-2.82,2.82-2.82,2.82,1.26,2.82,2.82Z"/>
              <path class="st8" d="M474.81,23.48c0-1.56-1.26-2.82-2.82-2.82s-2.82,1.26-2.82,2.82,1.26,2.82,2.82,2.82c1.56,0,2.82-1.26,2.82-2.82Z"/>
            </g>
            <g>
              <path class="st8" d="M471.98,23.86c-.06,0-.13-.02-.19-.05l-26.58-15.35c-.18-.1-.24-.33-.14-.51.1-.18.33-.24.51-.14l26.58,15.35c.18.1.24.33.14.51-.07.12-.2.19-.33.19Z"/>
              <path class="st8" d="M473.39,21.04c1.35.78,1.81,2.5,1.03,3.85-.78,1.35-2.5,1.81-3.85,1.03-1.35-.78-1.81-2.5-1.03-3.85.78-1.35,2.5-1.81,3.85-1.03Z"/>
              <path class="st8" d="M446.82,5.7c-1.35-.78-3.07-.32-3.85,1.03-.78,1.35-.32,3.07,1.03,3.85,1.35.78,3.07.32,3.85-1.03.78-1.35.32-3.07-1.03-3.85Z"/>
            </g>
            <g>
              <path class="st8" d="M418.83,23.86c-.13,0-.26-.07-.33-.19-.1-.18-.04-.41.14-.51l26.58-15.35c.18-.1.41-.04.51.14.1.18.04.41-.14.51l-26.58,15.35c-.06.03-.12.05-.19.05Z"/>
              <path class="st8" d="M444,5.7c1.35-.78,3.07-.32,3.85,1.03.78,1.35.32,3.07-1.03,3.85-1.35.78-3.07.32-3.85-1.03s-.32-3.07,1.03-3.85Z"/>
              <path class="st8" d="M417.42,21.04c-1.35.78-1.81,2.5-1.03,3.85.78,1.35,2.5,1.81,3.85,1.03,1.35-.78,1.81-2.5,1.03-3.85-.78-1.35-2.5-1.81-3.85-1.03Z"/>
            </g>
            <g>
              <path class="st8" d="M471.98,54.55c-.21,0-.38-.17-.38-.38v-30.69c0-.21.17-.38.38-.38s.38.17.38.38v30.69c0,.21-.17.38-.38.38Z"/>
              <path class="st8" d="M474.8,54.18c0,1.56-1.26,2.82-2.82,2.82s-2.82-1.26-2.82-2.82,1.26-2.82,2.82-2.82,2.82,1.26,2.82,2.82Z"/>
              <path class="st8" d="M474.8,23.48c0-1.56-1.26-2.82-2.82-2.82s-2.82,1.26-2.82,2.82,1.26,2.82,2.82,2.82,2.82-1.26,2.82-2.82Z"/>
            </g>
            <g>
              <path class="st8" d="M498.56,69.9c-.06,0-.13-.02-.19-.05l-26.58-15.35c-.18-.1-.24-.33-.14-.51.1-.18.33-.24.51-.14l26.58,15.35c.18.1.24.33.14.51-.07.12-.2.19-.33.19Z"/>
              <path class="st8" d="M470.57,56.62c-1.35-.78-1.81-2.5-1.03-3.85.78-1.35,2.5-1.81,3.85-1.03,1.35.78,1.81,2.5,1.03,3.85-.78,1.35-2.5,1.81-3.85,1.03Z"/>
              <path class="st8" d="M497.15,71.97c1.35.78,3.07.32,3.85-1.03.78-1.35.32-3.07-1.03-3.85-1.35-.78-3.07-.32-3.85,1.03-.78,1.35-.32,3.07,1.03,3.85Z"/>
            </g>
            <g>
              <path class="st8" d="M498.56,69.9c-.13,0-.26-.07-.33-.19-.1-.18-.04-.41.14-.51l26.58-15.35c.18-.1.41-.04.51.14.1.18.04.41-.14.51l-26.58,15.35c-.06.03-.12.05-.19.05Z"/>
              <path class="st8" d="M499.97,71.97c-1.35.78-3.07.32-3.85-1.03-.78-1.35-.32-3.07,1.03-3.85,1.35-.78,3.07-.32,3.85,1.03.78,1.35.32,3.07-1.03,3.85Z"/>
              <path class="st8" d="M526.55,56.62c1.35-.78,1.81-2.5,1.03-3.85-.78-1.35-2.5-1.81-3.85-1.03-1.35.78-1.81,2.5-1.03,3.85s2.5,1.81,3.85,1.03Z"/>
            </g>
            <g>
              <path class="st8" d="M525.14,54.55c-.21,0-.38-.17-.38-.38v-30.69c0-.21.17-.38.37-.38s.38.17.38.38v30.69c0,.21-.17.38-.37.38Z"/>
              <path class="st8" d="M527.96,54.18c0,1.56-1.26,2.82-2.82,2.82-1.56,0-2.82-1.26-2.82-2.82,0-1.56,1.26-2.82,2.82-2.82s2.82,1.26,2.82,2.82Z"/>
              <path class="st8" d="M527.96,23.48c0-1.56-1.26-2.82-2.82-2.82s-2.82,1.26-2.82,2.82c0,1.56,1.26,2.82,2.82,2.82,1.56,0,2.82-1.26,2.82-2.82Z"/>
            </g>
            <g>
              <path class="st8" d="M525.14,23.86c-.06,0-.13-.02-.19-.05l-26.58-15.35c-.18-.1-.24-.33-.14-.51s.33-.24.51-.14l26.58,15.35c.18.1.24.33.14.51-.07.12-.2.19-.33.19Z"/>
              <path class="st8" d="M526.55,21.04c1.35.78,1.81,2.5,1.03,3.85-.78,1.35-2.5,1.81-3.85,1.03-1.35-.78-1.81-2.5-1.03-3.85.78-1.35,2.5-1.81,3.85-1.03Z"/>
              <path class="st8" d="M499.97,5.7c-1.35-.78-3.07-.32-3.85,1.03-.78,1.35-.32,3.07,1.03,3.85,1.35.78,3.07.32,3.85-1.03.78-1.35.32-3.07-1.03-3.85Z"/>
            </g>
            <g>
              <path class="st8" d="M471.98,23.86c-.13,0-.26-.07-.33-.19-.1-.18-.04-.41.14-.51l26.58-15.35c.18-.1.41-.04.51.14s.04.41-.14.51l-26.58,15.35c-.06.03-.12.05-.19.05Z"/>
              <path class="st8" d="M497.15,5.7c1.35-.78,3.07-.32,3.85,1.03.78,1.35.32,3.07-1.03,3.85-1.35.78-3.07.32-3.85-1.03-.78-1.35-.32-3.07,1.03-3.85Z"/>
              <path class="st8" d="M470.57,21.04c-1.35.78-1.81,2.5-1.03,3.85.78,1.35,2.5,1.81,3.85,1.03,1.35-.78,1.81-2.5,1.03-3.85-.78-1.35-2.5-1.81-3.85-1.03Z"/>
            </g>
            <g>
              <path class="st8" d="M392.25,69.9c-.06,0-.13-.02-.19-.05l-26.58-15.35c-.18-.1-.24-.33-.14-.51.1-.18.33-.24.51-.14l26.58,15.35c.18.1.24.33.14.51-.07.12-.2.19-.33.19Z"/>
              <path class="st8" d="M393.66,67.08c1.35.78,1.81,2.5,1.03,3.85-.78,1.35-2.5,1.81-3.85,1.03s-1.81-2.5-1.03-3.85c.78-1.35,2.5-1.81,3.85-1.03Z"/>
              <path class="st8" d="M367.08,51.74c-1.35-.78-3.07-.32-3.85,1.03-.78,1.35-.32,3.07,1.03,3.85,1.35.78,3.07.32,3.85-1.03.78-1.35.32-3.07-1.03-3.85Z"/>
            </g>
            <g>
              <path class="st8" d="M418.83,115.94c-.13,0-.26-.07-.33-.19-.1-.18-.04-.41.14-.51l26.58-15.35c.18-.1.41-.04.51.14.1.18.04.41-.14.51l-26.58,15.35c-.06.03-.12.05-.19.05Z"/>
              <path class="st8" d="M420.24,118.01c-1.35.78-3.07.32-3.85-1.03-.78-1.35-.32-3.07,1.03-3.85,1.35-.78,3.07-.32,3.85,1.03.78,1.35.32,3.07-1.03,3.85Z"/>
              <path class="st8" d="M446.82,102.66c1.35-.78,1.81-2.5,1.03-3.85-.78-1.35-2.5-1.81-3.85-1.03s-1.81,2.5-1.03,3.85,2.5,1.81,3.85,1.03Z"/>
            </g>
            <g>
              <path class="st8" d="M445.41,100.59c-.21,0-.38-.17-.38-.38v-30.69c0-.21.17-.38.37-.38s.38.17.38.38v30.69c0,.21-.17.38-.37.38Z"/>
              <path class="st8" d="M448.23,100.22c0,1.56-1.26,2.82-2.82,2.82-1.56,0-2.82-1.26-2.82-2.82,0-1.56,1.26-2.82,2.82-2.82,1.56,0,2.82,1.26,2.82,2.82Z"/>
              <path class="st8" d="M448.23,69.52c0-1.56-1.26-2.82-2.82-2.82s-2.82,1.26-2.82,2.82,1.26,2.82,2.82,2.82,2.82-1.26,2.82-2.82Z"/>
            </g>
            <g>
              <path class="st8" d="M445.41,69.9c-.06,0-.13-.02-.19-.05l-26.58-15.35c-.18-.1-.24-.33-.14-.51.1-.18.33-.24.51-.14l26.58,15.35c.18.1.24.33.14.51-.07.12-.2.19-.33.19Z"/>
              <path class="st8" d="M446.82,67.08c1.35.78,1.81,2.5,1.03,3.85-.78,1.35-2.5,1.81-3.85,1.03-1.35-.78-1.81-2.5-1.03-3.85.78-1.35,2.5-1.81,3.85-1.03Z"/>
              <path class="st8" d="M420.24,51.74c-1.35-.78-3.07-.32-3.85,1.03-.78,1.35-.32,3.07,1.03,3.85,1.35.78,3.07.32,3.85-1.03.78-1.35.32-3.07-1.03-3.85Z"/>
            </g>
            <g>
              <path class="st8" d="M392.25,69.9c-.13,0-.26-.07-.33-.19-.1-.18-.04-.41.14-.51l26.58-15.35c.18-.1.41-.04.51.14.1.18.04.41-.14.51l-26.58,15.35c-.06.03-.12.05-.19.05Z"/>
              <path class="st8" d="M417.42,51.74c1.35-.78,3.07-.32,3.85,1.03s.32,3.07-1.03,3.85c-1.35.78-3.07.32-3.85-1.03-.78-1.35-.32-3.07,1.03-3.85Z"/>
              <path class="st8" d="M390.84,67.08c-1.35.78-1.81,2.5-1.03,3.85.78,1.35,2.5,1.81,3.85,1.03,1.35-.78,1.81-2.5,1.03-3.85-.78-1.35-2.5-1.81-3.85-1.03Z"/>
            </g>
            <g>
              <path class="st8" d="M445.41,100.59c-.21,0-.38-.17-.38-.38v-30.69c0-.21.17-.38.38-.38s.38.17.38.38v30.69c0,.21-.17.38-.38.38Z"/>
              <path class="st8" d="M448.23,100.22c0,1.56-1.26,2.82-2.82,2.82s-2.82-1.26-2.82-2.82,1.26-2.82,2.82-2.82,2.82,1.26,2.82,2.82Z"/>
              <path class="st8" d="M448.23,69.52c0-1.56-1.26-2.82-2.82-2.82s-2.82,1.26-2.82,2.82,1.26,2.82,2.82,2.82,2.82-1.26,2.82-2.82Z"/>
            </g>
            <g>
              <path class="st8" d="M471.99,115.94c-.06,0-.13-.02-.19-.05l-26.58-15.35c-.18-.1-.24-.33-.14-.51.1-.18.33-.24.51-.14l26.58,15.35c.18.1.24.33.14.51-.07.12-.2.19-.33.19Z"/>
              <path class="st8" d="M444,102.66c-1.35-.78-1.81-2.5-1.03-3.85.78-1.35,2.5-1.81,3.85-1.03s1.81,2.5,1.03,3.85c-.78,1.35-2.5,1.81-3.85,1.03Z"/>
              <path class="st8" d="M470.58,118.01c1.35.78,3.07.32,3.85-1.03.78-1.35.32-3.07-1.03-3.85-1.35-.78-3.07-.32-3.85,1.03-.78,1.35-.32,3.07,1.03,3.85Z"/>
            </g>
            <g>
              <path class="st8" d="M471.99,115.94c-.13,0-.26-.07-.33-.19-.1-.18-.04-.41.14-.51l26.58-15.35c.18-.1.41-.04.51.14.1.18.04.41-.14.51l-26.58,15.35c-.06.03-.12.05-.19.05Z"/>
              <path class="st8" d="M473.4,118.01c-1.35.78-3.07.32-3.85-1.03-.78-1.35-.32-3.07,1.03-3.85,1.35-.78,3.07-.32,3.85,1.03s.32,3.07-1.03,3.85Z"/>
              <path class="st8" d="M499.98,102.66c1.35-.78,1.81-2.5,1.03-3.85-.78-1.35-2.5-1.81-3.85-1.03s-1.81,2.5-1.03,3.85c.78,1.35,2.5,1.81,3.85,1.03Z"/>
            </g>
            <g>
              <path class="st8" d="M498.57,100.59c-.21,0-.38-.17-.38-.38v-30.69c0-.21.17-.38.37-.38s.38.17.38.38v30.69c0,.21-.17.38-.37.38Z"/>
              <path class="st8" d="M501.39,100.22c0,1.56-1.26,2.82-2.82,2.82-1.56,0-2.82-1.26-2.82-2.82s1.26-2.82,2.82-2.82c1.56,0,2.82,1.26,2.82,2.82Z"/>
              <path class="st8" d="M501.39,69.52c0-1.56-1.26-2.82-2.82-2.82s-2.82,1.26-2.82,2.82c0,1.56,1.26,2.82,2.82,2.82s2.82-1.26,2.82-2.82Z"/>
            </g>
            <g>
              <path class="st8" d="M498.56,69.9c-.06,0-.13-.02-.19-.05l-26.58-15.35c-.18-.1-.24-.33-.14-.51.1-.18.33-.24.51-.14l26.58,15.35c.18.1.24.33.14.51-.07.12-.2.19-.33.19Z"/>
              <path class="st8" d="M499.97,67.08c1.35.78,1.81,2.5,1.03,3.85-.78,1.35-2.5,1.81-3.85,1.03-1.35-.78-1.81-2.5-1.03-3.85.78-1.35,2.5-1.81,3.85-1.03Z"/>
              <path class="st8" d="M473.4,51.74c-1.35-.78-3.07-.32-3.85,1.03-.78,1.35-.32,3.07,1.03,3.85,1.35.78,3.07.32,3.85-1.03.78-1.35.32-3.07-1.03-3.85Z"/>
            </g>
            <g>
              <path class="st8" d="M445.41,69.9c-.13,0-.26-.07-.33-.19-.1-.18-.04-.41.14-.51l26.58-15.35c.18-.1.41-.04.51.14.1.18.04.41-.14.51l-26.58,15.35c-.06.03-.12.05-.19.05Z"/>
              <path class="st8" d="M470.58,51.74c1.35-.78,3.07-.32,3.85,1.03.78,1.35.32,3.07-1.03,3.85-1.35.78-3.07.32-3.85-1.03-.78-1.35-.32-3.07,1.03-3.85Z"/>
              <path class="st8" d="M444,67.08c-1.35.78-1.81,2.5-1.03,3.85.78,1.35,2.5,1.81,3.85,1.03,1.35-.78,1.81-2.5,1.03-3.85-.78-1.35-2.5-1.81-3.85-1.03Z"/>
            </g>
            <g>
              <path class="st8" d="M498.56,100.59c-.21,0-.38-.17-.38-.38v-30.69c0-.21.17-.38.38-.38s.38.17.38.38v30.69c0,.21-.17.38-.38.38Z"/>
              <path class="st8" d="M501.38,100.22c0,1.56-1.26,2.82-2.82,2.82s-2.82-1.26-2.82-2.82,1.26-2.82,2.82-2.82,2.82,1.26,2.82,2.82Z"/>
              <path class="st8" d="M501.38,69.52c0-1.56-1.26-2.82-2.82-2.82s-2.82,1.26-2.82,2.82,1.26,2.82,2.82,2.82,2.82-1.26,2.82-2.82Z"/>
            </g>
            <g>
              <path class="st8" d="M525.14,115.94c-.06,0-.13-.02-.19-.05l-26.58-15.35c-.18-.1-.24-.33-.14-.51.1-.18.33-.24.51-.14l26.58,15.35c.18.1.24.33.14.51-.07.12-.2.19-.33.19Z"/>
              <path class="st8" d="M497.15,102.66c-1.35-.78-1.81-2.5-1.03-3.85.78-1.35,2.5-1.81,3.85-1.03,1.35.78,1.81,2.5,1.03,3.85-.78,1.35-2.5,1.81-3.85,1.03Z"/>
              <path class="st8" d="M523.73,118.01c1.35.78,3.07.32,3.85-1.03.78-1.35.32-3.07-1.03-3.85-1.35-.78-3.07-.32-3.85,1.03s-.32,3.07,1.03,3.85Z"/>
            </g>
            <g>
              <path class="st8" d="M525.15,115.94c-.13,0-.26-.07-.33-.19-.1-.18-.04-.41.14-.51l26.58-15.35c.18-.1.41-.04.51.14.1.18.04.41-.14.51l-26.58,15.35c-.06.03-.12.05-.19.05Z"/>
              <path class="st8" d="M526.55,118.01c-1.35.78-3.07.32-3.85-1.03s-.32-3.07,1.03-3.85c1.35-.78,3.07-.32,3.85,1.03.78,1.35.32,3.07-1.03,3.85Z"/>
            </g>
            <g>
              <path class="st8" d="M551.72,69.9c-.06,0-.13-.02-.19-.05l-26.58-15.35c-.18-.1-.24-.33-.14-.51.1-.18.33-.24.51-.14l26.58,15.35c.18.1.24.33.14.51-.07.12-.2.19-.33.19Z"/>
              <path class="st8" d="M526.55,51.74c-1.35-.78-3.07-.32-3.85,1.03-.78,1.35-.32,3.07,1.03,3.85,1.35.78,3.07.32,3.85-1.03.78-1.35.32-3.07-1.03-3.85Z"/>
            </g>
            <g>
              <path class="st8" d="M498.56,69.9c-.13,0-.26-.07-.33-.19-.1-.18-.04-.41.14-.51l26.58-15.35c.18-.1.41-.04.51.14.1.18.04.41-.14.51l-26.58,15.35c-.06.03-.12.05-.19.05Z"/>
              <path class="st8" d="M523.73,51.74c1.35-.78,3.07-.32,3.85,1.03.78,1.35.32,3.07-1.03,3.85-1.35.78-3.07.32-3.85-1.03s-.32-3.07,1.03-3.85Z"/>
              <path class="st8" d="M497.15,67.08c-1.35.78-1.81,2.5-1.03,3.85.78,1.35,2.5,1.81,3.85,1.03,1.35-.78,1.81-2.5,1.03-3.85-.78-1.35-2.5-1.81-3.85-1.03Z"/>
            </g>
            <g>
              <path class="st8" d="M445.41,161.98c-.13,0-.26-.07-.33-.19-.1-.18-.04-.41.14-.51l26.58-15.35c.18-.1.41-.04.51.14.1.18.04.41-.14.51l-26.58,15.35c-.06.03-.12.05-.19.05Z"/>
              <path class="st8" d="M446.82,164.05c-1.35.78-3.07.32-3.85-1.03-.78-1.35-.32-3.07,1.03-3.85,1.35-.78,3.07-.32,3.85,1.03.78,1.35.32,3.07-1.03,3.85Z"/>
              <path class="st8" d="M473.4,148.7c1.35-.78,1.81-2.5,1.03-3.85-.78-1.35-2.5-1.81-3.85-1.03-1.35.78-1.81,2.5-1.03,3.85.78,1.35,2.5,1.81,3.85,1.03Z"/>
            </g>
            <g>
              <path class="st8" d="M471.99,146.63c-.21,0-.38-.17-.38-.38v-30.69c0-.21.17-.38.37-.38s.38.17.38.38v30.69c0,.21-.17.38-.37.38Z"/>
              <path class="st8" d="M474.81,146.26c0,1.56-1.26,2.82-2.82,2.82-1.56,0-2.82-1.26-2.82-2.82s1.26-2.82,2.82-2.82,2.82,1.26,2.82,2.82Z"/>
              <path class="st8" d="M474.81,115.56c0-1.56-1.26-2.82-2.82-2.82-1.56,0-2.82,1.26-2.82,2.82s1.26,2.82,2.82,2.82,2.82-1.26,2.82-2.82Z"/>
            </g>
            <g>
              <path class="st8" d="M471.98,115.94c-.06,0-.13-.02-.19-.05l-26.58-15.35c-.18-.1-.24-.33-.14-.51.1-.18.33-.24.51-.14l26.58,15.35c.18.1.24.33.14.51-.07.12-.2.19-.33.19Z"/>
              <path class="st8" d="M473.39,113.12c1.35.78,1.81,2.5,1.03,3.85-.78,1.35-2.5,1.81-3.85,1.03-1.35-.78-1.81-2.5-1.03-3.85s2.5-1.81,3.85-1.03Z"/>
              <path class="st8" d="M446.82,97.78c-1.35-.78-3.07-.32-3.85,1.03-.78,1.35-.32,3.07,1.03,3.85,1.35.78,3.07.32,3.85-1.03.78-1.35.32-3.07-1.03-3.85Z"/>
            </g>
            <g>
              <path class="st8" d="M418.83,115.94c-.13,0-.26-.07-.33-.19-.1-.18-.04-.41.14-.51l26.58-15.35c.18-.1.41-.04.51.14.1.18.04.41-.14.51l-26.58,15.35c-.06.03-.12.05-.19.05Z"/>
              <path class="st8" d="M444,97.78c1.35-.78,3.07-.32,3.85,1.03.78,1.35.32,3.07-1.03,3.85-1.35.78-3.07.32-3.85-1.03s-.32-3.07,1.03-3.85Z"/>
              <path class="st8" d="M417.42,113.12c-1.35.78-1.81,2.5-1.03,3.85s2.5,1.81,3.85,1.03c1.35-.78,1.81-2.5,1.03-3.85s-2.5-1.81-3.85-1.03Z"/>
            </g>
            <g>
              <path class="st8" d="M471.98,146.63c-.21,0-.38-.17-.38-.38v-30.69c0-.21.17-.38.38-.38s.38.17.38.38v30.69c0,.21-.17.38-.38.38Z"/>
              <path class="st8" d="M474.8,146.26c0,1.56-1.26,2.82-2.82,2.82s-2.82-1.26-2.82-2.82,1.26-2.82,2.82-2.82,2.82,1.26,2.82,2.82Z"/>
              <path class="st8" d="M474.8,115.56c0-1.56-1.26-2.82-2.82-2.82s-2.82,1.26-2.82,2.82,1.26,2.82,2.82,2.82,2.82-1.26,2.82-2.82Z"/>
            </g>
            <g>
              <path class="st8" d="M498.56,161.98c-.06,0-.13-.02-.19-.05l-26.58-15.35c-.18-.1-.24-.33-.14-.51.1-.18.33-.24.51-.14l26.58,15.35c.18.1.24.33.14.51-.07.12-.2.19-.33.19Z"/>
              <path class="st8" d="M470.57,148.7c-1.35-.78-1.81-2.5-1.03-3.85.78-1.35,2.5-1.81,3.85-1.03,1.35.78,1.81,2.5,1.03,3.85-.78,1.35-2.5,1.81-3.85,1.03Z"/>
              <path class="st8" d="M497.15,164.05c1.35.78,3.07.32,3.85-1.03.78-1.35.32-3.07-1.03-3.85-1.35-.78-3.07-.32-3.85,1.03-.78,1.35-.32,3.07,1.03,3.85Z"/>
            </g>
            <g>
              <path class="st8" d="M498.56,161.98c-.13,0-.26-.07-.33-.19-.1-.18-.04-.41.14-.51l26.58-15.35c.18-.1.41-.04.51.14.1.18.04.41-.14.51l-26.58,15.35c-.06.03-.12.05-.19.05Z"/>
              <path class="st8" d="M499.97,164.05c-1.35.78-3.07.32-3.85-1.03-.78-1.35-.32-3.07,1.03-3.85,1.35-.78,3.07-.32,3.85,1.03.78,1.35.32,3.07-1.03,3.85Z"/>
              <path class="st8" d="M526.55,148.7c1.35-.78,1.81-2.5,1.03-3.85-.78-1.35-2.5-1.81-3.85-1.03-1.35.78-1.81,2.5-1.03,3.85s2.5,1.81,3.85,1.03Z"/>
            </g>
            <g>
              <path class="st8" d="M525.14,146.63c-.21,0-.38-.17-.38-.38v-30.69c0-.21.17-.38.37-.38s.38.17.38.38v30.69c0,.21-.17.38-.37.38Z"/>
              <path class="st8" d="M527.96,146.26c0,1.56-1.26,2.82-2.82,2.82-1.56,0-2.82-1.26-2.82-2.82,0-1.56,1.26-2.82,2.82-2.82s2.82,1.26,2.82,2.82Z"/>
              <path class="st8" d="M527.96,115.56c0-1.56-1.26-2.82-2.82-2.82-1.56,0-2.82,1.26-2.82,2.82,0,1.56,1.26,2.82,2.82,2.82s2.82-1.26,2.82-2.82Z"/>
            </g>
            <g>
              <path class="st8" d="M525.14,115.94c-.06,0-.13-.02-.19-.05l-26.58-15.35c-.18-.1-.24-.33-.14-.51.1-.18.33-.24.51-.14l26.58,15.35c.18.1.24.33.14.51-.07.12-.2.19-.33.19Z"/>
              <path class="st8" d="M526.55,113.12c1.35.78,1.81,2.5,1.03,3.85-.78,1.35-2.5,1.81-3.85,1.03-1.35-.78-1.81-2.5-1.03-3.85s2.5-1.81,3.85-1.03Z"/>
              <path class="st8" d="M499.97,97.78c-1.35-.78-3.07-.32-3.85,1.03-.78,1.35-.32,3.07,1.03,3.85,1.35.78,3.07.32,3.85-1.03.78-1.35.32-3.07-1.03-3.85Z"/>
            </g>
            <g>
              <path class="st8" d="M471.98,115.94c-.13,0-.26-.07-.33-.19-.1-.18-.04-.41.14-.51l26.58-15.35c.18-.1.41-.04.51.14.1.18.04.41-.14.51l-26.58,15.35c-.06.03-.12.05-.19.05Z"/>
              <path class="st8" d="M497.15,97.78c1.35-.78,3.07-.32,3.85,1.03.78,1.35.32,3.07-1.03,3.85-1.35.78-3.07.32-3.85-1.03-.78-1.35-.32-3.07,1.03-3.85Z"/>
              <path class="st8" d="M470.57,113.12c-1.35.78-1.81,2.5-1.03,3.85.78,1.35,2.5,1.81,3.85,1.03,1.35-.78,1.81-2.5,1.03-3.85-.78-1.35-2.5-1.81-3.85-1.03Z"/>
            </g>
            <g>
              <path class="st8" d="M445.41,192.67c-.21,0-.38-.17-.38-.38v-30.69c0-.21.17-.38.37-.38s.38.17.38.38v30.69c0,.21-.17.38-.37.38Z"/>
              <path class="st8" d="M448.23,192.3c0,1.56-1.26,2.82-2.82,2.82s-2.82-1.26-2.82-2.82c0-1.56,1.26-2.82,2.82-2.82s2.82,1.26,2.82,2.82Z"/>
              <path class="st8" d="M448.23,161.6c0-1.56-1.26-2.82-2.82-2.82s-2.82,1.26-2.82,2.82,1.26,2.82,2.82,2.82,2.82-1.26,2.82-2.82Z"/>
            </g>
            <g>
              <path class="st8" d="M445.41,192.67c-.21,0-.38-.17-.38-.38v-30.69c0-.21.17-.38.38-.38s.38.17.38.38v30.69c0,.21-.17.38-.38.38Z"/>
              <path class="st8" d="M448.23,192.3c0,1.56-1.26,2.82-2.82,2.82s-2.82-1.26-2.82-2.82,1.26-2.82,2.82-2.82,2.82,1.26,2.82,2.82Z"/>
              <path class="st8" d="M448.23,161.6c0-1.56-1.26-2.82-2.82-2.82s-2.82,1.26-2.82,2.82,1.26,2.82,2.82,2.82,2.82-1.26,2.82-2.82Z"/>
            </g>
            <g>
              <path class="st8" d="M471.99,208.02c-.06,0-.13-.02-.19-.05l-26.58-15.35c-.18-.1-.24-.33-.14-.51.1-.18.33-.24.51-.14l26.58,15.35c.18.1.24.33.14.51-.07.12-.2.19-.33.19Z"/>
              <path class="st8" d="M444,194.74c-1.35-.78-1.81-2.5-1.03-3.85.78-1.35,2.5-1.81,3.85-1.03,1.35.78,1.81,2.5,1.03,3.85-.78,1.35-2.5,1.81-3.85,1.03Z"/>
              <path class="st8" d="M470.58,210.09c1.35.78,3.07.32,3.85-1.03.78-1.35.32-3.07-1.03-3.85-1.35-.78-3.07-.32-3.85,1.03-.78,1.35-.32,3.07,1.03,3.85Z"/>
            </g>
            <g>
              <path class="st8" d="M471.99,208.02c-.13,0-.26-.07-.33-.19-.1-.18-.04-.41.14-.51l26.58-15.35c.18-.1.41-.04.51.14.1.18.04.41-.14.51l-26.58,15.35c-.06.03-.12.05-.19.05Z"/>
              <path class="st8" d="M473.4,210.09c-1.35.78-3.07.32-3.85-1.03-.78-1.35-.32-3.07,1.03-3.85,1.35-.78,3.07-.32,3.85,1.03s.32,3.07-1.03,3.85Z"/>
              <path class="st8" d="M499.98,194.74c1.35-.78,1.81-2.5,1.03-3.85-.78-1.35-2.5-1.81-3.85-1.03-1.35.78-1.81,2.5-1.03,3.85.78,1.35,2.5,1.81,3.85,1.03Z"/>
            </g>
            <g>
              <path class="st8" d="M498.57,192.67c-.21,0-.38-.17-.38-.38v-30.69c0-.21.17-.38.37-.38s.38.17.38.38v30.69c0,.21-.17.38-.37.38Z"/>
              <path class="st8" d="M501.39,192.3c0,1.56-1.26,2.82-2.82,2.82s-2.82-1.26-2.82-2.82,1.26-2.82,2.82-2.82,2.82,1.26,2.82,2.82Z"/>
              <path class="st8" d="M501.39,161.6c0-1.56-1.26-2.82-2.82-2.82s-2.82,1.26-2.82,2.82c0,1.56,1.26,2.82,2.82,2.82s2.82-1.26,2.82-2.82Z"/>
            </g>
            <g>
              <path class="st8" d="M498.56,161.98c-.06,0-.13-.02-.19-.05l-26.58-15.35c-.18-.1-.24-.33-.14-.51.1-.18.33-.24.51-.14l26.58,15.35c.18.1.24.33.14.51-.07.12-.2.19-.33.19Z"/>
              <path class="st8" d="M499.97,159.16c1.35.78,1.81,2.5,1.03,3.85-.78,1.35-2.5,1.81-3.85,1.03-1.35-.78-1.81-2.5-1.03-3.85.78-1.35,2.5-1.81,3.85-1.03Z"/>
              <path class="st8" d="M473.4,143.82c-1.35-.78-3.07-.32-3.85,1.03-.78,1.35-.32,3.07,1.03,3.85,1.35.78,3.07.32,3.85-1.03s.32-3.07-1.03-3.85Z"/>
            </g>
            <g>
              <path class="st8" d="M445.41,161.98c-.13,0-.26-.07-.33-.19-.1-.18-.04-.41.14-.51l26.58-15.35c.18-.1.41-.04.51.14.1.18.04.41-.14.51l-26.58,15.35c-.06.03-.12.05-.19.05Z"/>
              <path class="st8" d="M470.58,143.82c1.35-.78,3.07-.32,3.85,1.03.78,1.35.32,3.07-1.03,3.85-1.35.78-3.07.32-3.85-1.03-.78-1.35-.32-3.07,1.03-3.85Z"/>
              <path class="st8" d="M444,159.16c-1.35.78-1.81,2.5-1.03,3.85.78,1.35,2.5,1.81,3.85,1.03,1.35-.78,1.81-2.5,1.03-3.85-.78-1.35-2.5-1.81-3.85-1.03Z"/>
            </g>
            <g>
              <path class="st8" d="M498.56,192.67c-.21,0-.38-.17-.38-.38v-30.69c0-.21.17-.38.38-.38s.38.17.38.38v30.69c0,.21-.17.38-.38.38Z"/>
              <path class="st8" d="M501.38,192.3c0,1.56-1.26,2.82-2.82,2.82s-2.82-1.26-2.82-2.82,1.26-2.82,2.82-2.82,2.82,1.26,2.82,2.82Z"/>
              <path class="st8" d="M501.38,161.6c0-1.56-1.26-2.82-2.82-2.82s-2.82,1.26-2.82,2.82,1.26,2.82,2.82,2.82,2.82-1.26,2.82-2.82Z"/>
            </g>
            <g>
              <path class="st8" d="M525.14,208.02c-.06,0-.13-.02-.19-.05l-26.58-15.35c-.18-.1-.24-.33-.14-.51.1-.18.33-.24.51-.14l26.58,15.35c.18.1.24.33.14.51-.07.12-.2.19-.33.19Z"/>
              <path class="st8" d="M497.15,194.74c-1.35-.78-1.81-2.5-1.03-3.85.78-1.35,2.5-1.81,3.85-1.03,1.35.78,1.81,2.5,1.03,3.85-.78,1.35-2.5,1.81-3.85,1.03Z"/>
              <path class="st8" d="M523.73,210.09c1.35.78,3.07.32,3.85-1.03.78-1.35.32-3.07-1.03-3.85-1.35-.78-3.07-.32-3.85,1.03s-.32,3.07,1.03,3.85Z"/>
            </g>
            <g>
              <path class="st8" d="M551.72,161.98c-.06,0-.13-.02-.19-.05l-26.58-15.35c-.18-.1-.24-.33-.14-.51.1-.18.33-.24.51-.14l26.58,15.35c.18.1.24.33.14.51-.07.12-.2.19-.33.19Z"/>
              <path class="st8" d="M526.55,143.82c-1.35-.78-3.07-.32-3.85,1.03-.78,1.35-.32,3.07,1.03,3.85,1.35.78,3.07.32,3.85-1.03.78-1.35.32-3.07-1.03-3.85Z"/>
            </g>
            <g>
              <path class="st8" d="M471.99,238.71c-.21,0-.38-.17-.38-.38v-30.69c0-.21.17-.38.37-.38s.38.17.38.38v30.69c0,.21-.17.38-.37.38Z"/>
              <path class="st8" d="M474.81,238.34c0,1.56-1.26,2.82-2.82,2.82s-2.82-1.26-2.82-2.82,1.26-2.82,2.82-2.82c1.56,0,2.82,1.26,2.82,2.82Z"/>
              <path class="st8" d="M474.81,207.64c0-1.56-1.26-2.82-2.82-2.82-1.56,0-2.82,1.26-2.82,2.82s1.26,2.82,2.82,2.82,2.82-1.26,2.82-2.82Z"/>
            </g>
            <g>
              <path class="st8" d="M471.98,208.02c-.06,0-.13-.02-.19-.05l-26.58-15.35c-.18-.1-.24-.33-.14-.51.1-.18.33-.24.51-.14l26.58,15.35c.18.1.24.33.14.51-.07.12-.2.19-.33.19Z"/>
              <path class="st8" d="M473.39,205.2c1.35.78,1.81,2.5,1.03,3.85-.78,1.35-2.5,1.81-3.85,1.03-1.35-.78-1.81-2.5-1.03-3.85.78-1.35,2.5-1.81,3.85-1.03Z"/>
              <path class="st8" d="M446.82,189.85c-1.35-.78-3.07-.32-3.85,1.03-.78,1.35-.32,3.07,1.03,3.85,1.35.78,3.07.32,3.85-1.03.78-1.35.32-3.07-1.03-3.85Z"/>
            </g>
            <g>
              <path class="st8" d="M471.98,238.71c-.21,0-.38-.17-.38-.38v-30.69c0-.21.17-.38.38-.38s.38.17.38.38v30.69c0,.21-.17.38-.38.38Z"/>
              <path class="st8" d="M474.8,238.34c0,1.56-1.26,2.82-2.82,2.82s-2.82-1.26-2.82-2.82,1.26-2.82,2.82-2.82,2.82,1.26,2.82,2.82Z"/>
              <path class="st8" d="M474.8,207.64c0-1.56-1.26-2.82-2.82-2.82s-2.82,1.26-2.82,2.82,1.26,2.82,2.82,2.82,2.82-1.26,2.82-2.82Z"/>
            </g>
            <g>
              <path class="st8" d="M498.56,254.06c-.06,0-.13-.02-.19-.05l-26.58-15.35c-.18-.1-.24-.33-.14-.51.1-.18.33-.24.51-.14l26.58,15.35c.18.1.24.33.14.51-.07.12-.2.19-.33.19Z"/>
              <path class="st8" d="M470.57,240.78c-1.35-.78-1.81-2.5-1.03-3.85.78-1.35,2.5-1.81,3.85-1.03s1.81,2.5,1.03,3.85c-.78,1.35-2.5,1.81-3.85,1.03Z"/>
              <path class="st8" d="M497.15,256.12c1.35.78,3.07.32,3.85-1.03.78-1.35.32-3.07-1.03-3.85-1.35-.78-3.07-.32-3.85,1.03-.78,1.35-.32,3.07,1.03,3.85Z"/>
            </g>
            <g>
              <path class="st8" d="M498.56,254.06c-.13,0-.26-.07-.33-.19-.1-.18-.04-.41.14-.51l26.58-15.35c.18-.1.41-.04.51.14.1.18.04.41-.14.51l-26.58,15.35c-.06.03-.12.05-.19.05Z"/>
              <path class="st8" d="M499.97,256.12c-1.35.78-3.07.32-3.85-1.03-.78-1.35-.32-3.07,1.03-3.85s3.07-.32,3.85,1.03c.78,1.35.32,3.07-1.03,3.85Z"/>
              <path class="st8" d="M526.55,240.78c1.35-.78,1.81-2.5,1.03-3.85-.78-1.35-2.5-1.81-3.85-1.03s-1.81,2.5-1.03,3.85,2.5,1.81,3.85,1.03Z"/>
            </g>
            <g>
              <path class="st8" d="M525.14,238.71c-.21,0-.38-.17-.38-.38v-30.69c0-.21.17-.38.37-.38s.38.17.38.38v30.69c0,.21-.17.38-.37.38Z"/>
              <path class="st8" d="M527.96,238.34c0,1.56-1.26,2.82-2.82,2.82s-2.82-1.26-2.82-2.82c0-1.56,1.26-2.82,2.82-2.82,1.56,0,2.82,1.26,2.82,2.82Z"/>
              <path class="st8" d="M527.96,207.64c0-1.56-1.26-2.82-2.82-2.82-1.56,0-2.82,1.26-2.82,2.82,0,1.56,1.26,2.82,2.82,2.82s2.82-1.26,2.82-2.82Z"/>
            </g>
            <g>
              <path class="st8" d="M525.14,208.02c-.06,0-.13-.02-.19-.05l-26.58-15.35c-.18-.1-.24-.33-.14-.51.1-.18.33-.24.51-.14l26.58,15.35c.18.1.24.33.14.51-.07.12-.2.19-.33.19Z"/>
              <path class="st8" d="M526.55,205.2c1.35.78,1.81,2.5,1.03,3.85-.78,1.35-2.5,1.81-3.85,1.03-1.35-.78-1.81-2.5-1.03-3.85.78-1.35,2.5-1.81,3.85-1.03Z"/>
              <path class="st8" d="M499.97,189.85c-1.35-.78-3.07-.32-3.85,1.03-.78,1.35-.32,3.07,1.03,3.85,1.35.78,3.07.32,3.85-1.03.78-1.35.32-3.07-1.03-3.85Z"/>
            </g>
            <g>
              <path class="st8" d="M471.98,208.02c-.13,0-.26-.07-.33-.19-.1-.18-.04-.41.14-.51l26.58-15.35c.18-.1.41-.04.51.14.1.18.04.41-.14.51l-26.58,15.35c-.06.03-.12.05-.19.05Z"/>
              <path class="st8" d="M497.15,189.85c1.35-.78,3.07-.32,3.85,1.03.78,1.35.32,3.07-1.03,3.85-1.35.78-3.07.32-3.85-1.03-.78-1.35-.32-3.07,1.03-3.85Z"/>
              <path class="st8" d="M470.57,205.2c-1.35.78-1.81,2.5-1.03,3.85.78,1.35,2.5,1.81,3.85,1.03,1.35-.78,1.81-2.5,1.03-3.85-.78-1.35-2.5-1.81-3.85-1.03Z"/>
            </g>
            <g>
              <path class="st8" d="M498.57,284.75c-.21,0-.38-.17-.38-.38v-30.69c0-.21.17-.38.37-.38s.38.17.38.38v30.69c0,.21-.17.38-.37.38Z"/>
              <path class="st8" d="M501.39,284.38c0,1.56-1.26,2.82-2.82,2.82-1.56,0-2.82-1.26-2.82-2.82s1.26-2.82,2.82-2.82,2.82,1.26,2.82,2.82Z"/>
              <path class="st8" d="M501.39,253.68c0-1.56-1.26-2.82-2.82-2.82-1.56,0-2.82,1.26-2.82,2.82,0,1.56,1.26,2.82,2.82,2.82s2.82-1.26,2.82-2.82Z"/>
            </g>
            <g>
              <path class="st8" d="M498.56,254.06c-.06,0-.13-.02-.19-.05l-26.58-15.35c-.18-.1-.24-.33-.14-.51.1-.18.33-.24.51-.14l26.58,15.35c.18.1.24.33.14.51-.07.12-.2.19-.33.19Z"/>
              <path class="st8" d="M499.97,251.24c1.35.78,1.81,2.5,1.03,3.85-.78,1.35-2.5,1.81-3.85,1.03-1.35-.78-1.81-2.5-1.03-3.85.78-1.35,2.5-1.81,3.85-1.03Z"/>
              <path class="st8" d="M473.4,235.89c-1.35-.78-3.07-.32-3.85,1.03-.78,1.35-.32,3.07,1.03,3.85,1.35.78,3.07.32,3.85-1.03.78-1.35.32-3.07-1.03-3.85Z"/>
            </g>
            <g>
              <path class="st8" d="M498.56,284.75c-.21,0-.38-.17-.38-.38v-30.69c0-.21.17-.38.38-.38s.38.17.38.38v30.69c0,.21-.17.38-.38.38Z"/>
              <path class="st8" d="M501.38,284.38c0,1.56-1.26,2.82-2.82,2.82s-2.82-1.26-2.82-2.82,1.26-2.82,2.82-2.82,2.82,1.26,2.82,2.82Z"/>
              <path class="st8" d="M501.38,253.68c0-1.56-1.26-2.82-2.82-2.82s-2.82,1.26-2.82,2.82,1.26,2.82,2.82,2.82,2.82-1.26,2.82-2.82Z"/>
            </g>
            <g>
              <path class="st8" d="M525.14,300.1c-.06,0-.13-.02-.19-.05l-26.58-15.35c-.18-.1-.24-.33-.14-.51s.33-.24.51-.14l26.58,15.35c.18.1.24.33.14.51-.07.12-.2.19-.33.19Z"/>
              <path class="st8" d="M497.15,286.82c-1.35-.78-1.81-2.5-1.03-3.85.78-1.35,2.5-1.81,3.85-1.03,1.35.78,1.81,2.5,1.03,3.85-.78,1.35-2.5,1.81-3.85,1.03Z"/>
            </g>
            <path class="st8" d="M525.15,300.1c-.13,0-.26-.07-.33-.19-.1-.18-.04-.41.14-.51l26.58-15.35c.18-.1.41-.04.51.14.1.18.04.41-.14.51l-26.58,15.35c-.06.03-.12.05-.19.05Z"/>
            <g>
              <path class="st8" d="M551.72,254.06c-.06,0-.13-.02-.19-.05l-26.58-15.35c-.18-.1-.24-.33-.14-.51.1-.18.33-.24.51-.14l26.58,15.35c.18.1.24.33.14.51-.07.12-.2.19-.33.19Z"/>
              <path class="st8" d="M526.55,235.89c-1.35-.78-3.07-.32-3.85,1.03-.78,1.35-.32,3.07,1.03,3.85,1.35.78,3.07.32,3.85-1.03.78-1.35.32-3.07-1.03-3.85Z"/>
            </g>
            <g>
              <path class="st8" d="M498.56,254.06c-.13,0-.26-.07-.33-.19-.1-.18-.04-.41.14-.51l26.58-15.35c.18-.1.41-.04.51.14.1.18.04.41-.14.51l-26.58,15.35c-.06.03-.12.05-.19.05Z"/>
              <path class="st8" d="M523.73,235.89c1.35-.78,3.07-.32,3.85,1.03.78,1.35.32,3.07-1.03,3.85-1.35.78-3.07.32-3.85-1.03s-.32-3.07,1.03-3.85Z"/>
              <path class="st8" d="M497.15,251.24c-1.35.78-1.81,2.5-1.03,3.85.78,1.35,2.5,1.81,3.85,1.03,1.35-.78,1.81-2.5,1.03-3.85-.78-1.35-2.5-1.81-3.85-1.03Z"/>
            </g>
            <g>
              <path class="st8" d="M525.14,300.1c-.06,0-.13-.02-.19-.05l-26.58-15.35c-.18-.1-.24-.33-.14-.51s.33-.24.51-.14l26.58,15.35c.18.1.24.33.14.51-.07.12-.2.19-.33.19Z"/>
              <path class="st8" d="M499.97,281.93c-1.35-.78-3.07-.32-3.85,1.03-.78,1.35-.32,3.07,1.03,3.85,1.35.78,3.07.32,3.85-1.03.78-1.35.32-3.07-1.03-3.85Z"/>
            </g>
          </g>
          <g>
            <g>
              <path class="st8" d="M172.42,264.96c-.13,0-.26-.07-.33-.19-.1-.18-.04-.41.14-.51l25.65-14.81c.18-.1.41-.04.51.14.1.18.04.41-.14.51l-25.65,14.81c-.06.03-.12.05-.19.05Z"/>
              <path class="st8" d="M196.66,247.34c1.35-.78,3.07-.32,3.85,1.03.78,1.35.32,3.07-1.03,3.85-1.35.78-3.07.32-3.85-1.03-.78-1.35-.32-3.07,1.03-3.85Z"/>
              <path class="st8" d="M171.01,262.15c-1.35.78-1.81,2.5-1.03,3.85.78,1.35,2.5,1.81,3.85,1.03,1.35-.78,1.81-2.5,1.03-3.85s-2.5-1.81-3.85-1.03Z"/>
            </g>
            <g>
              <path class="st8" d="M172.42,294.58c-.21,0-.38-.17-.38-.38v-29.62c0-.21.17-.38.37-.38s.38.17.38.38v29.62c0,.21-.17.38-.37.38Z"/>
              <path class="st8" d="M169.6,264.59c0-1.56,1.26-2.82,2.82-2.82s2.82,1.26,2.82,2.82-1.26,2.82-2.82,2.82c-1.56,0-2.82-1.26-2.82-2.82Z"/>
            </g>
            <g>
              <path class="st8" d="M172.42,294.58c-.21,0-.38-.17-.38-.38v-29.62c0-.21.17-.38.38-.38s.38.17.38.38v29.62c0,.21-.17.38-.38.38Z"/>
              <path class="st8" d="M169.6,264.59c0-1.56,1.26-2.82,2.82-2.82s2.82,1.26,2.82,2.82-1.26,2.82-2.82,2.82-2.82-1.26-2.82-2.82Z"/>
            </g>
            <g>
              <path class="st8" d="M172.42,264.96c-.06,0-.13-.02-.19-.05l-25.65-14.81c-.18-.1-.24-.33-.14-.51.1-.18.33-.24.51-.14l25.65,14.81c.18.1.24.33.14.51-.07.12-.2.19-.33.19Z"/>
              <path class="st8" d="M173.83,262.15c1.35.78,1.81,2.5,1.03,3.85-.78,1.35-2.5,1.81-3.85,1.03-1.35-.78-1.81-2.5-1.03-3.85.78-1.35,2.5-1.81,3.85-1.03Z"/>
              <path class="st8" d="M148.18,247.34c-1.35-.78-3.07-.32-3.85,1.03s-.32,3.07,1.03,3.85c1.35.78,3.07.32,3.85-1.03.78-1.35.32-3.07-1.03-3.85Z"/>
            </g>
            <g>
              <path class="st8" d="M121.12,264.96c-.13,0-.26-.07-.33-.19-.1-.18-.04-.41.14-.51l25.65-14.81c.18-.1.41-.04.51.14s.04.41-.14.51l-25.65,14.81c-.06.03-.12.05-.19.05Z"/>
              <path class="st8" d="M145.36,247.34c1.35-.78,3.07-.32,3.85,1.03.78,1.35.32,3.07-1.03,3.85-1.35.78-3.07.32-3.85-1.03s-.32-3.07,1.03-3.85Z"/>
              <path class="st8" d="M119.71,262.15c-1.35.78-1.81,2.5-1.03,3.85.78,1.35,2.5,1.81,3.85,1.03,1.35-.78,1.81-2.5,1.03-3.85s-2.5-1.81-3.85-1.03Z"/>
            </g>
            <g>
              <path class="st8" d="M121.12,294.58c-.21,0-.38-.17-.38-.38v-29.62c0-.21.17-.38.37-.38s.38.17.38.38v29.62c0,.21-.17.38-.37.38Z"/>
              <path class="st8" d="M118.3,264.59c0-1.56,1.26-2.82,2.82-2.82s2.82,1.26,2.82,2.82c0,1.56-1.26,2.82-2.82,2.82-1.56,0-2.82-1.26-2.82-2.82Z"/>
            </g>
            <g>
              <path class="st8" d="M121.13,294.58c-.21,0-.38-.17-.38-.38v-29.62c0-.21.17-.38.38-.38s.38.17.38.38v29.62c0,.21-.17.38-.38.38Z"/>
              <path class="st8" d="M118.31,264.59c0-1.56,1.26-2.82,2.82-2.82s2.82,1.26,2.82,2.82-1.26,2.82-2.82,2.82-2.82-1.26-2.82-2.82Z"/>
            </g>
            <g>
              <path class="st8" d="M121.13,264.96c-.06,0-.13-.02-.19-.05l-25.65-14.81c-.18-.1-.24-.33-.14-.51s.33-.24.51-.14l25.65,14.81c.18.1.24.33.14.51-.07.12-.2.19-.33.19Z"/>
              <path class="st8" d="M122.54,262.15c1.35.78,1.81,2.5,1.03,3.85-.78,1.35-2.5,1.81-3.85,1.03-1.35-.78-1.81-2.5-1.03-3.85.78-1.35,2.5-1.81,3.85-1.03Z"/>
              <path class="st8" d="M96.89,247.34c-1.35-.78-3.07-.32-3.85,1.03-.78,1.35-.32,3.07,1.03,3.85,1.35.78,3.07.32,3.85-1.03.78-1.35.32-3.07-1.03-3.85Z"/>
            </g>
            <g>
              <path class="st8" d="M198.06,250.16c-.21,0-.38-.17-.38-.38v-29.62c0-.21.17-.38.37-.38s.38.17.38.38v29.62c0,.21-.17.38-.37.38Z"/>
              <path class="st8" d="M195.24,220.16c0-1.56,1.26-2.82,2.82-2.82s2.82,1.26,2.82,2.82-1.26,2.82-2.82,2.82-2.82-1.26-2.82-2.82Z"/>
              <path class="st8" d="M195.24,249.78c0,1.56,1.26,2.82,2.82,2.82,1.56,0,2.82-1.26,2.82-2.82s-1.26-2.82-2.82-2.82c-1.56,0-2.82,1.26-2.82,2.82Z"/>
            </g>
            <g>
              <path class="st8" d="M198.07,250.16c-.21,0-.38-.17-.38-.38v-29.62c0-.21.17-.38.38-.38s.38.17.38.38v29.62c0,.21-.17.38-.38.38Z"/>
              <path class="st8" d="M195.25,220.16c0-1.56,1.26-2.82,2.82-2.82s2.82,1.26,2.82,2.82-1.26,2.82-2.82,2.82-2.82-1.26-2.82-2.82Z"/>
              <path class="st8" d="M195.25,249.78c0,1.56,1.26,2.82,2.82,2.82s2.82-1.26,2.82-2.82-1.26-2.82-2.82-2.82-2.82,1.26-2.82,2.82Z"/>
            </g>
            <g>
              <path class="st8" d="M146.77,250.16c-.21,0-.38-.17-.38-.38v-29.62c0-.21.17-.38.37-.38s.38.17.38.38v29.62c0,.21-.17.38-.37.38Z"/>
              <path class="st8" d="M143.95,220.16c0-1.56,1.26-2.82,2.82-2.82s2.82,1.26,2.82,2.82-1.26,2.82-2.82,2.82-2.82-1.26-2.82-2.82Z"/>
              <path class="st8" d="M143.95,249.78c0,1.56,1.26,2.82,2.82,2.82,1.56,0,2.82-1.26,2.82-2.82,0-1.56-1.26-2.82-2.82-2.82-1.56,0-2.82,1.26-2.82,2.82Z"/>
            </g>
            <g>
              <path class="st8" d="M172.42,264.96c-.06,0-.13-.02-.19-.05l-25.64-14.81c-.18-.1-.24-.33-.14-.51.1-.18.33-.24.51-.14l25.64,14.81c.18.1.24.33.14.51-.07.12-.2.19-.33.19Z"/>
              <path class="st8" d="M145.36,252.22c-1.35-.78-1.81-2.5-1.03-3.85.78-1.35,2.5-1.81,3.85-1.03,1.35.78,1.81,2.5,1.03,3.85-.78,1.35-2.5,1.81-3.85,1.03Z"/>
              <path class="st8" d="M171.01,267.03c1.35.78,3.07.32,3.85-1.03.78-1.35.32-3.07-1.03-3.85-1.35-.78-3.07-.32-3.85,1.03-.78,1.35-.32,3.07,1.03,3.85Z"/>
            </g>
            <g>
              <path class="st8" d="M172.42,264.96c-.13,0-.26-.07-.33-.19-.1-.18-.04-.41.14-.51l25.65-14.81c.18-.1.41-.04.51.14.1.18.04.41-.14.51l-25.65,14.81c-.06.03-.12.05-.19.05Z"/>
              <path class="st8" d="M173.83,267.03c-1.35.78-3.07.32-3.85-1.03-.78-1.35-.32-3.07,1.03-3.85,1.35-.78,3.07-.32,3.85,1.03s.32,3.07-1.03,3.85Z"/>
              <path class="st8" d="M199.48,252.22c1.35-.78,1.81-2.5,1.03-3.85-.78-1.35-2.5-1.81-3.85-1.03-1.35.78-1.81,2.5-1.03,3.85.78,1.35,2.5,1.81,3.85,1.03Z"/>
            </g>
            <g>
              <path class="st8" d="M146.77,250.16c-.21,0-.38-.17-.38-.38v-29.62c0-.21.17-.38.38-.38s.38.17.38.38v29.62c0,.21-.17.38-.38.38Z"/>
              <path class="st8" d="M143.95,220.16c0-1.56,1.26-2.82,2.82-2.82s2.82,1.26,2.82,2.82-1.26,2.82-2.82,2.82-2.82-1.26-2.82-2.82Z"/>
              <path class="st8" d="M143.95,249.78c0,1.56,1.26,2.82,2.82,2.82s2.82-1.26,2.82-2.82-1.26-2.82-2.82-2.82-2.82,1.26-2.82,2.82Z"/>
            </g>
            <g>
              <path class="st8" d="M146.77,220.54c-.06,0-.13-.02-.19-.05l-25.65-14.81c-.18-.1-.24-.33-.14-.51.1-.18.33-.24.51-.14l25.65,14.81c.18.1.24.33.14.51-.07.12-.2.19-.33.19Z"/>
              <path class="st8" d="M148.18,217.72c1.35.78,1.81,2.5,1.03,3.85-.78,1.35-2.5,1.81-3.85,1.03-1.35-.78-1.81-2.5-1.03-3.85s2.5-1.81,3.85-1.03Z"/>
              <path class="st8" d="M122.53,202.91c-1.35-.78-3.07-.32-3.85,1.03-.78,1.35-.32,3.07,1.03,3.85,1.35.78,3.07.32,3.85-1.03.78-1.35.32-3.07-1.03-3.85Z"/>
            </g>
            <g>
              <path class="st8" d="M95.48,220.54c-.13,0-.26-.07-.33-.19-.1-.18-.04-.41.14-.51l25.65-14.81c.18-.1.41-.04.51.14.1.18.04.41-.14.51l-25.65,14.81c-.06.03-.12.05-.19.05Z"/>
              <path class="st8" d="M119.71,202.91c1.35-.78,3.07-.32,3.85,1.03.78,1.35.32,3.07-1.03,3.85-1.35.78-3.07.32-3.85-1.03-.78-1.35-.32-3.07,1.03-3.85Z"/>
              <path class="st8" d="M94.06,217.72c-1.35.78-1.81,2.5-1.03,3.85.78,1.35,2.5,1.81,3.85,1.03,1.35-.78,1.81-2.5,1.03-3.85-.78-1.35-2.5-1.81-3.85-1.03Z"/>
            </g>
            <g>
              <path class="st8" d="M95.48,250.16c-.21,0-.38-.17-.38-.38v-29.62c0-.21.17-.38.37-.38s.38.17.38.38v29.62c0,.21-.17.38-.37.38Z"/>
              <path class="st8" d="M92.65,220.16c0-1.56,1.26-2.82,2.82-2.82s2.82,1.26,2.82,2.82-1.26,2.82-2.82,2.82-2.82-1.26-2.82-2.82Z"/>
              <path class="st8" d="M92.66,249.78c0,1.56,1.26,2.82,2.82,2.82,1.56,0,2.82-1.26,2.82-2.82s-1.26-2.82-2.82-2.82c-1.56,0-2.82,1.26-2.82,2.82Z"/>
            </g>
            <g>
              <path class="st8" d="M121.12,264.96c-.06,0-.13-.02-.19-.05l-25.64-14.81c-.18-.1-.24-.33-.14-.51s.33-.24.51-.14l25.64,14.81c.18.1.24.33.14.51-.07.12-.2.19-.33.19Z"/>
              <path class="st8" d="M94.07,252.22c-1.35-.78-1.81-2.5-1.03-3.85.78-1.35,2.5-1.81,3.85-1.03,1.35.78,1.81,2.5,1.03,3.85-.78,1.35-2.5,1.81-3.85,1.03Z"/>
              <path class="st8" d="M119.71,267.03c1.35.78,3.07.32,3.85-1.03.78-1.35.32-3.07-1.03-3.85-1.35-.78-3.07-.32-3.85,1.03-.78,1.35-.32,3.07,1.03,3.85Z"/>
            </g>
            <g>
              <path class="st8" d="M121.12,264.96c-.13,0-.26-.07-.33-.19-.1-.18-.04-.41.14-.51l25.65-14.81c.18-.1.41-.04.51.14s.04.41-.14.51l-25.65,14.81c-.06.03-.12.05-.19.05Z"/>
              <path class="st8" d="M122.53,267.03c-1.35.78-3.07.32-3.85-1.03-.78-1.35-.32-3.07,1.03-3.85,1.35-.78,3.07-.32,3.85,1.03s.32,3.07-1.03,3.85Z"/>
              <path class="st8" d="M148.18,252.22c1.35-.78,1.81-2.5,1.03-3.85-.78-1.35-2.5-1.81-3.85-1.03-1.35.78-1.81,2.5-1.03,3.85s2.5,1.81,3.85,1.03Z"/>
            </g>
            <g>
              <path class="st8" d="M95.48,250.16c-.21,0-.38-.17-.38-.38v-29.62c0-.21.17-.38.38-.38s.38.17.38.38v29.62c0,.21-.17.38-.38.38Z"/>
              <path class="st8" d="M92.66,220.16c0-1.56,1.26-2.82,2.82-2.82s2.82,1.26,2.82,2.82-1.26,2.82-2.82,2.82-2.82-1.26-2.82-2.82Z"/>
              <path class="st8" d="M92.66,249.78c0,1.56,1.26,2.82,2.82,2.82s2.82-1.26,2.82-2.82-1.26-2.82-2.82-2.82-2.82,1.26-2.82,2.82Z"/>
            </g>
            <g>
              <path class="st8" d="M95.48,220.54c-.06,0-.13-.02-.19-.05l-25.65-14.81c-.18-.1-.24-.33-.14-.51.1-.18.33-.24.51-.14l25.65,14.81c.18.1.24.33.14.51-.07.12-.2.19-.33.19Z"/>
              <path class="st8" d="M96.89,217.72c1.35.78,1.81,2.5,1.03,3.85-.78,1.35-2.5,1.81-3.85,1.03-1.35-.78-1.81-2.5-1.03-3.85s2.5-1.81,3.85-1.03Z"/>
              <path class="st8" d="M71.24,202.91c-1.35-.78-3.07-.32-3.85,1.03-.78,1.35-.32,3.07,1.03,3.85,1.35.78,3.07.32,3.85-1.03.78-1.35.32-3.07-1.03-3.85Z"/>
            </g>
            <g>
              <path class="st8" d="M121.12,176.11c-.13,0-.26-.07-.33-.19-.1-.18-.04-.41.14-.51l25.65-14.81c.18-.1.41-.04.51.14.1.18.04.41-.14.51l-25.65,14.81c-.06.03-.12.05-.19.05Z"/>
              <path class="st8" d="M145.36,158.49c1.35-.78,3.07-.32,3.85,1.03.78,1.35.32,3.07-1.03,3.85-1.35.78-3.07.32-3.85-1.03s-.32-3.07,1.03-3.85Z"/>
              <path class="st8" d="M119.71,173.3c-1.35.78-1.81,2.5-1.03,3.85.78,1.35,2.5,1.81,3.85,1.03,1.35-.78,1.81-2.5,1.03-3.85s-2.5-1.81-3.85-1.03Z"/>
            </g>
            <g>
              <path class="st8" d="M121.12,205.73c-.21,0-.38-.17-.38-.38v-29.62c0-.21.17-.38.37-.38s.38.17.38.38v29.62c0,.21-.17.38-.37.38Z"/>
              <path class="st8" d="M118.3,175.74c0-1.56,1.26-2.82,2.82-2.82,1.56,0,2.82,1.26,2.82,2.82,0,1.56-1.26,2.82-2.82,2.82-1.56,0-2.82-1.26-2.82-2.82Z"/>
              <path class="st8" d="M118.3,205.35c0,1.56,1.26,2.82,2.82,2.82s2.82-1.26,2.82-2.82c0-1.56-1.26-2.82-2.82-2.82s-2.82,1.26-2.82,2.82Z"/>
            </g>
            <g>
              <path class="st8" d="M146.77,220.54c-.06,0-.13-.02-.19-.05l-25.64-14.81c-.18-.1-.24-.33-.14-.51.1-.18.33-.24.51-.14l25.64,14.81c.18.1.24.33.14.51-.07.12-.2.19-.33.19Z"/>
              <path class="st8" d="M119.72,207.8c-1.35-.78-1.81-2.5-1.03-3.85.78-1.35,2.5-1.81,3.85-1.03,1.35.78,1.81,2.5,1.03,3.85-.78,1.35-2.5,1.81-3.85,1.03Z"/>
              <path class="st8" d="M145.36,222.61c1.35.78,3.07.32,3.85-1.03.78-1.35.32-3.07-1.03-3.85-1.35-.78-3.07-.32-3.85,1.03-.78,1.35-.32,3.07,1.03,3.85Z"/>
            </g>
            <g>
              <path class="st8" d="M121.13,205.73c-.21,0-.38-.17-.38-.38v-29.62c0-.21.17-.38.38-.38s.38.17.38.38v29.62c0,.21-.17.38-.38.38Z"/>
              <path class="st8" d="M118.31,175.74c0-1.56,1.26-2.82,2.82-2.82s2.82,1.26,2.82,2.82-1.26,2.82-2.82,2.82-2.82-1.26-2.82-2.82Z"/>
              <path class="st8" d="M118.31,205.35c0,1.56,1.26,2.82,2.82,2.82s2.82-1.26,2.82-2.82-1.26-2.82-2.82-2.82-2.82,1.26-2.82,2.82Z"/>
            </g>
            <g>
              <path class="st8" d="M121.13,176.11c-.06,0-.13-.02-.19-.05l-25.65-14.81c-.18-.1-.24-.33-.14-.51.1-.18.33-.24.51-.14l25.65,14.81c.18.1.24.33.14.51-.07.12-.2.19-.33.19Z"/>
              <path class="st8" d="M122.54,173.3c1.35.78,1.81,2.5,1.03,3.85s-2.5,1.81-3.85,1.03c-1.35-.78-1.81-2.5-1.03-3.85.78-1.35,2.5-1.81,3.85-1.03Z"/>
              <path class="st8" d="M96.89,158.49c-1.35-.78-3.07-.32-3.85,1.03-.78,1.35-.32,3.07,1.03,3.85,1.35.78,3.07.32,3.85-1.03.78-1.35.32-3.07-1.03-3.85Z"/>
            </g>
            <g>
              <path class="st8" d="M69.83,176.11c-.13,0-.26-.07-.33-.19-.1-.18-.04-.41.14-.51l25.65-14.81c.18-.1.41-.04.51.14.1.18.04.41-.14.51l-25.65,14.81c-.06.03-.12.05-.19.05Z"/>
              <path class="st8" d="M94.07,158.49c1.35-.78,3.07-.32,3.85,1.03.78,1.35.32,3.07-1.03,3.85-1.35.78-3.07.32-3.85-1.03s-.32-3.07,1.03-3.85Z"/>
              <path class="st8" d="M68.42,173.3c-1.35.78-1.81,2.5-1.03,3.85.78,1.35,2.5,1.81,3.85,1.03,1.35-.78,1.81-2.5,1.03-3.85-.78-1.35-2.5-1.81-3.85-1.03Z"/>
            </g>
            <g>
              <path class="st8" d="M69.83,205.73c-.21,0-.38-.17-.38-.38v-29.62c0-.21.17-.38.38-.38s.38.17.38.38v29.62c0,.21-.17.38-.38.38Z"/>
              <path class="st8" d="M67.01,175.74c0-1.56,1.26-2.82,2.82-2.82,1.56,0,2.82,1.26,2.82,2.82s-1.26,2.82-2.82,2.82c-1.56,0-2.82-1.26-2.82-2.82Z"/>
              <path class="st8" d="M67.01,205.35c0,1.56,1.26,2.82,2.82,2.82s2.82-1.26,2.82-2.82-1.26-2.82-2.82-2.82-2.82,1.26-2.82,2.82Z"/>
            </g>
            <g>
              <path class="st8" d="M95.48,220.54c-.06,0-.13-.02-.19-.05l-25.64-14.81c-.18-.1-.24-.33-.14-.51.1-.18.33-.24.51-.14l25.64,14.81c.18.1.24.33.14.51-.07.12-.2.19-.33.19Z"/>
              <path class="st8" d="M68.43,207.8c-1.35-.78-1.81-2.5-1.03-3.85.78-1.35,2.5-1.81,3.85-1.03,1.35.78,1.81,2.5,1.03,3.85-.78,1.35-2.5,1.81-3.85,1.03Z"/>
              <path class="st8" d="M94.07,222.61c1.35.78,3.07.32,3.85-1.03.78-1.35.32-3.07-1.03-3.85-1.35-.78-3.07-.32-3.85,1.03-.78,1.35-.32,3.07,1.03,3.85Z"/>
            </g>
            <g>
              <path class="st8" d="M95.48,220.54c-.13,0-.26-.07-.33-.19-.1-.18-.04-.41.14-.51l25.65-14.81c.18-.1.41-.04.51.14.1.18.04.41-.14.51l-25.65,14.81c-.06.03-.12.05-.19.05Z"/>
              <path class="st8" d="M96.89,222.61c-1.35.78-3.07.32-3.85-1.03-.78-1.35-.32-3.07,1.03-3.85,1.35-.78,3.07-.32,3.85,1.03.78,1.35.32,3.07-1.03,3.85Z"/>
              <path class="st8" d="M122.54,207.8c1.35-.78,1.81-2.5,1.03-3.85-.78-1.35-2.5-1.81-3.85-1.03-1.35.78-1.81,2.5-1.03,3.85.78,1.35,2.5,1.81,3.85,1.03Z"/>
            </g>
            <g>
              <path class="st8" d="M69.84,205.73c-.21,0-.38-.17-.38-.38v-29.62c0-.21.17-.38.38-.38s.38.17.38.38v29.62c0,.21-.17.38-.38.38Z"/>
              <path class="st8" d="M67.02,175.74c0-1.56,1.26-2.82,2.82-2.82s2.82,1.26,2.82,2.82-1.26,2.82-2.82,2.82-2.82-1.26-2.82-2.82Z"/>
              <path class="st8" d="M67.02,205.35c0,1.56,1.26,2.82,2.82,2.82s2.82-1.26,2.82-2.82-1.26-2.82-2.82-2.82-2.82,1.26-2.82,2.82Z"/>
            </g>
            <g>
              <path class="st8" d="M146.77,161.3c-.21,0-.38-.17-.38-.38v-29.62c0-.21.17-.38.37-.38s.38.17.38.38v29.62c0,.21-.17.38-.37.38Z"/>
              <path class="st8" d="M143.95,131.31c0-1.56,1.26-2.82,2.82-2.82s2.82,1.26,2.82,2.82-1.26,2.82-2.82,2.82c-1.56,0-2.82-1.26-2.82-2.82Z"/>
              <path class="st8" d="M143.95,160.93c0,1.56,1.26,2.82,2.82,2.82,1.56,0,2.82-1.26,2.82-2.82,0-1.56-1.26-2.82-2.82-2.82s-2.82,1.26-2.82,2.82Z"/>
            </g>
            <g>
              <path class="st8" d="M146.77,161.3c-.21,0-.38-.17-.38-.38v-29.62c0-.21.17-.38.38-.38s.38.17.38.38v29.62c0,.21-.17.38-.38.38Z"/>
              <path class="st8" d="M143.95,131.31c0-1.56,1.26-2.82,2.82-2.82s2.82,1.26,2.82,2.82-1.26,2.82-2.82,2.82-2.82-1.26-2.82-2.82Z"/>
              <circle class="st8" cx="146.77" cy="160.93" r="2.82"/>
            </g>
            <g>
              <path class="st8" d="M146.77,131.69c-.06,0-.13-.02-.19-.05l-25.65-14.81c-.18-.1-.24-.33-.14-.51.1-.18.33-.24.51-.14l25.65,14.81c.18.1.24.33.14.51-.07.12-.2.19-.33.19Z"/>
              <path class="st8" d="M148.18,128.87c1.35.78,1.81,2.5,1.03,3.85-.78,1.35-2.5,1.81-3.85,1.03-1.35-.78-1.81-2.5-1.03-3.85s2.5-1.81,3.85-1.03Z"/>
              <path class="st8" d="M122.53,114.06c-1.35-.78-3.07-.32-3.85,1.03-.78,1.35-.32,3.07,1.03,3.85,1.35.78,3.07.32,3.85-1.03s.32-3.07-1.03-3.85Z"/>
            </g>
            <g>
              <path class="st8" d="M95.48,131.69c-.13,0-.26-.07-.33-.19-.1-.18-.04-.41.14-.51l25.65-14.81c.18-.1.41-.04.51.14.1.18.04.41-.14.51l-25.65,14.81c-.06.03-.12.05-.19.05Z"/>
              <path class="st8" d="M119.71,114.06c1.35-.78,3.07-.32,3.85,1.03s.32,3.07-1.03,3.85c-1.35.78-3.07.32-3.85-1.03-.78-1.35-.32-3.07,1.03-3.85Z"/>
              <path class="st8" d="M94.06,128.87c-1.35.78-1.81,2.5-1.03,3.85.78,1.35,2.5,1.81,3.85,1.03,1.35-.78,1.81-2.5,1.03-3.85-.78-1.35-2.5-1.81-3.85-1.03Z"/>
            </g>
            <g>
              <path class="st8" d="M95.48,161.3c-.21,0-.38-.17-.38-.38v-29.62c0-.21.17-.38.37-.38s.38.17.38.38v29.62c0,.21-.17.38-.37.38Z"/>
              <path class="st8" d="M92.65,131.31c0-1.56,1.26-2.82,2.82-2.82s2.82,1.26,2.82,2.82-1.26,2.82-2.82,2.82c-1.56,0-2.82-1.26-2.82-2.82Z"/>
              <path class="st8" d="M92.66,160.93c0,1.56,1.26,2.82,2.82,2.82,1.56,0,2.82-1.26,2.82-2.82s-1.26-2.82-2.82-2.82-2.82,1.26-2.82,2.82Z"/>
            </g>
            <g>
              <path class="st8" d="M121.12,176.11c-.06,0-.13-.02-.19-.05l-25.64-14.81c-.18-.1-.24-.33-.14-.51.1-.18.33-.24.51-.14l25.64,14.81c.18.1.24.33.14.51-.07.12-.2.19-.33.19Z"/>
              <path class="st8" d="M94.07,163.37c-1.35-.78-1.81-2.5-1.03-3.85.78-1.35,2.5-1.81,3.85-1.03,1.35.78,1.81,2.5,1.03,3.85-.78,1.35-2.5,1.81-3.85,1.03Z"/>
              <path class="st8" d="M119.71,178.18c1.35.78,3.07.32,3.85-1.03.78-1.35.32-3.07-1.03-3.85-1.35-.78-3.07-.32-3.85,1.03s-.32,3.07,1.03,3.85Z"/>
            </g>
            <g>
              <path class="st8" d="M121.12,176.11c-.13,0-.26-.07-.33-.19-.1-.18-.04-.41.14-.51l25.65-14.81c.18-.1.41-.04.51.14.1.18.04.41-.14.51l-25.65,14.81c-.06.03-.12.05-.19.05Z"/>
              <path class="st8" d="M122.53,178.18c-1.35.78-3.07.32-3.85-1.03-.78-1.35-.32-3.07,1.03-3.85,1.35-.78,3.07-.32,3.85,1.03s.32,3.07-1.03,3.85Z"/>
              <path class="st8" d="M148.18,163.37c1.35-.78,1.81-2.5,1.03-3.85-.78-1.35-2.5-1.81-3.85-1.03-1.35.78-1.81,2.5-1.03,3.85s2.5,1.81,3.85,1.03Z"/>
            </g>
            <g>
              <path class="st8" d="M95.48,161.3c-.21,0-.38-.17-.38-.38v-29.62c0-.21.17-.38.38-.38s.38.17.38.38v29.62c0,.21-.17.38-.38.38Z"/>
              <path class="st8" d="M92.66,131.31c0-1.56,1.26-2.82,2.82-2.82s2.82,1.26,2.82,2.82-1.26,2.82-2.82,2.82-2.82-1.26-2.82-2.82Z"/>
              <circle class="st8" cx="95.48" cy="160.93" r="2.82"/>
            </g>
            <g>
              <path class="st8" d="M95.48,131.69c-.06,0-.13-.02-.19-.05l-25.65-14.81c-.18-.1-.24-.33-.14-.51.1-.18.33-.24.51-.14l25.65,14.81c.18.1.24.33.14.51-.07.12-.2.19-.33.19Z"/>
              <path class="st8" d="M96.89,128.87c1.35.78,1.81,2.5,1.03,3.85-.78,1.35-2.5,1.81-3.85,1.03-1.35-.78-1.81-2.5-1.03-3.85s2.5-1.81,3.85-1.03Z"/>
              <path class="st8" d="M71.24,114.06c-1.35-.78-3.07-.32-3.85,1.03-.78,1.35-.32,3.07,1.03,3.85,1.35.78,3.07.32,3.85-1.03.78-1.35.32-3.07-1.03-3.85Z"/>
            </g>
            <g>
              <path class="st8" d="M69.83,176.11c-.13,0-.26-.07-.33-.19-.1-.18-.04-.41.14-.51l25.65-14.81c.18-.1.41-.04.51.14.1.18.04.41-.14.51l-25.65,14.81c-.06.03-.12.05-.19.05Z"/>
              <path class="st8" d="M71.24,178.18c-1.35.78-3.07.32-3.85-1.03-.78-1.35-.32-3.07,1.03-3.85,1.35-.78,3.07-.32,3.85,1.03.78,1.35.32,3.07-1.03,3.85Z"/>
              <path class="st8" d="M96.89,163.37c1.35-.78,1.81-2.5,1.03-3.85-.78-1.35-2.5-1.81-3.85-1.03-1.35.78-1.81,2.5-1.03,3.85s2.5,1.81,3.85,1.03Z"/>
            </g>
            <g>
              <path class="st8" d="M121.12,87.26c-.13,0-.26-.07-.33-.19-.1-.18-.04-.41.14-.51l25.65-14.81c.18-.1.41-.04.51.14.1.18.04.41-.14.51l-25.65,14.81c-.06.03-.12.05-.19.05Z"/>
              <path class="st8" d="M145.36,69.63c1.35-.78,3.07-.32,3.85,1.03.78,1.35.32,3.07-1.03,3.85-1.35.78-3.07.32-3.85-1.03-.78-1.35-.32-3.07,1.03-3.85Z"/>
              <path class="st8" d="M119.71,84.44c-1.35.78-1.81,2.5-1.03,3.85.78,1.35,2.5,1.81,3.85,1.03,1.35-.78,1.81-2.5,1.03-3.85s-2.5-1.81-3.85-1.03Z"/>
            </g>
            <g>
              <path class="st8" d="M121.12,116.88c-.21,0-.38-.17-.38-.38v-29.62c0-.21.17-.38.37-.38s.38.17.38.38v29.62c0,.21-.17.38-.37.38Z"/>
              <path class="st8" d="M118.3,86.89c0-1.56,1.26-2.82,2.82-2.82,1.56,0,2.82,1.26,2.82,2.82,0,1.56-1.26,2.82-2.82,2.82s-2.82-1.26-2.82-2.82Z"/>
              <path class="st8" d="M118.3,116.5c0,1.56,1.26,2.82,2.82,2.82,1.56,0,2.82-1.26,2.82-2.82,0-1.56-1.26-2.82-2.82-2.82-1.56,0-2.82,1.26-2.82,2.82Z"/>
            </g>
            <g>
              <path class="st8" d="M146.77,131.69c-.06,0-.13-.02-.19-.05l-25.64-14.81c-.18-.1-.24-.33-.14-.51.1-.18.33-.24.51-.14l25.64,14.81c.18.1.24.33.14.51-.07.12-.2.19-.33.19Z"/>
              <path class="st8" d="M119.72,118.94c-1.35-.78-1.81-2.5-1.03-3.85.78-1.35,2.5-1.81,3.85-1.03,1.35.78,1.81,2.5,1.03,3.85-.78,1.35-2.5,1.81-3.85,1.03Z"/>
              <path class="st8" d="M145.36,133.75c1.35.78,3.07.32,3.85-1.03.78-1.35.32-3.07-1.03-3.85-1.35-.78-3.07-.32-3.85,1.03-.78,1.35-.32,3.07,1.03,3.85Z"/>
            </g>
            <g>
              <path class="st8" d="M121.13,116.88c-.21,0-.38-.17-.38-.38v-29.62c0-.21.17-.38.38-.38s.38.17.38.38v29.62c0,.21-.17.38-.38.38Z"/>
              <path class="st8" d="M118.31,86.89c0-1.56,1.26-2.82,2.82-2.82s2.82,1.26,2.82,2.82-1.26,2.82-2.82,2.82-2.82-1.26-2.82-2.82Z"/>
              <path class="st8" d="M118.31,116.5c0,1.56,1.26,2.82,2.82,2.82s2.82-1.26,2.82-2.82-1.26-2.82-2.82-2.82-2.82,1.26-2.82,2.82Z"/>
            </g>
            <g>
              <path class="st8" d="M121.13,87.26c-.06,0-.13-.02-.19-.05l-25.65-14.81c-.18-.1-.24-.33-.14-.51.1-.18.33-.24.51-.14l25.65,14.81c.18.1.24.33.14.51-.07.12-.2.19-.33.19Z"/>
              <path class="st8" d="M122.54,84.44c1.35.78,1.81,2.5,1.03,3.85s-2.5,1.81-3.85,1.03c-1.35-.78-1.81-2.5-1.03-3.85.78-1.35,2.5-1.81,3.85-1.03Z"/>
              <path class="st8" d="M96.89,69.63c-1.35-.78-3.07-.32-3.85,1.03-.78,1.35-.32,3.07,1.03,3.85,1.35.78,3.07.32,3.85-1.03.78-1.35.32-3.07-1.03-3.85Z"/>
            </g>
            <g>
              <path class="st8" d="M69.83,87.26c-.13,0-.26-.07-.33-.19-.1-.18-.04-.41.14-.51l25.65-14.81c.18-.1.41-.04.51.14.1.18.04.41-.14.51l-25.65,14.81c-.06.03-.12.05-.19.05Z"/>
              <path class="st8" d="M94.07,69.63c1.35-.78,3.07-.32,3.85,1.03.78,1.35.32,3.07-1.03,3.85-1.35.78-3.07.32-3.85-1.03-.78-1.35-.32-3.07,1.03-3.85Z"/>
              <path class="st8" d="M68.42,84.44c-1.35.78-1.81,2.5-1.03,3.85.78,1.35,2.5,1.81,3.85,1.03,1.35-.78,1.81-2.5,1.03-3.85-.78-1.35-2.5-1.81-3.85-1.03Z"/>
            </g>
            <g>
              <path class="st8" d="M69.83,116.88c-.21,0-.38-.17-.38-.38v-29.62c0-.21.17-.38.38-.38s.38.17.38.38v29.62c0,.21-.17.38-.38.38Z"/>
              <path class="st8" d="M67.01,86.89c0-1.56,1.26-2.82,2.82-2.82,1.56,0,2.82,1.26,2.82,2.82s-1.26,2.82-2.82,2.82-2.82-1.26-2.82-2.82Z"/>
              <path class="st8" d="M67.01,116.5c0,1.56,1.26,2.82,2.82,2.82,1.56,0,2.82-1.26,2.82-2.82s-1.26-2.82-2.82-2.82c-1.56,0-2.82,1.26-2.82,2.82Z"/>
            </g>
            <g>
              <path class="st8" d="M95.48,131.69c-.06,0-.13-.02-.19-.05l-25.64-14.81c-.18-.1-.24-.33-.14-.51.1-.18.33-.24.51-.14l25.64,14.81c.18.1.24.33.14.51-.07.12-.2.19-.33.19Z"/>
              <path class="st8" d="M68.43,118.94c-1.35-.78-1.81-2.5-1.03-3.85.78-1.35,2.5-1.81,3.85-1.03,1.35.78,1.81,2.5,1.03,3.85-.78,1.35-2.5,1.81-3.85,1.03Z"/>
              <path class="st8" d="M94.07,133.75c1.35.78,3.07.32,3.85-1.03.78-1.35.32-3.07-1.03-3.85-1.35-.78-3.07-.32-3.85,1.03-.78,1.35-.32,3.07,1.03,3.85Z"/>
            </g>
            <g>
              <path class="st8" d="M95.48,131.69c-.13,0-.26-.07-.33-.19-.1-.18-.04-.41.14-.51l25.65-14.81c.18-.1.41-.04.51.14.1.18.04.41-.14.51l-25.65,14.81c-.06.03-.12.05-.19.05Z"/>
              <path class="st8" d="M96.89,133.75c-1.35.78-3.07.32-3.85-1.03-.78-1.35-.32-3.07,1.03-3.85,1.35-.78,3.07-.32,3.85,1.03.78,1.35.32,3.07-1.03,3.85Z"/>
              <path class="st8" d="M122.54,118.94c1.35-.78,1.81-2.5,1.03-3.85s-2.5-1.81-3.85-1.03c-1.35.78-1.81,2.5-1.03,3.85.78,1.35,2.5,1.81,3.85,1.03Z"/>
            </g>
            <g>
              <path class="st8" d="M69.84,116.88c-.21,0-.38-.17-.38-.38v-29.62c0-.21.17-.38.38-.38s.38.17.38.38v29.62c0,.21-.17.38-.38.38Z"/>
              <path class="st8" d="M67.02,86.89c0-1.56,1.26-2.82,2.82-2.82s2.82,1.26,2.82,2.82-1.26,2.82-2.82,2.82-2.82-1.26-2.82-2.82Z"/>
              <path class="st8" d="M67.02,116.5c0,1.56,1.26,2.82,2.82,2.82s2.82-1.26,2.82-2.82-1.26-2.82-2.82-2.82-2.82,1.26-2.82,2.82Z"/>
            </g>
            <g>
              <path class="st8" d="M69.84,87.26c-.06,0-.13-.02-.19-.05l-25.65-14.81c-.18-.1-.24-.33-.14-.51.1-.18.33-.24.51-.14l25.65,14.81c.18.1.24.33.14.51-.07.12-.2.19-.33.19Z"/>
              <path class="st8" d="M71.25,84.44c1.35.78,1.81,2.5,1.03,3.85-.78,1.35-2.5,1.81-3.85,1.03-1.35-.78-1.81-2.5-1.03-3.85.78-1.35,2.5-1.81,3.85-1.03Z"/>
              <path class="st8" d="M45.6,69.63c-1.35-.78-3.07-.32-3.85,1.03-.78,1.35-.32,3.07,1.03,3.85,1.35.78,3.07.32,3.85-1.03.78-1.35.32-3.07-1.03-3.85Z"/>
            </g>
            <g>
              <path class="st8" d="M146.77,72.45c-.21,0-.38-.17-.38-.38v-29.62c0-.21.17-.38.37-.38s.38.17.38.38v29.62c0,.21-.17.38-.37.38Z"/>
              <path class="st8" d="M143.95,42.46c0-1.56,1.26-2.82,2.82-2.82,1.56,0,2.82,1.26,2.82,2.82s-1.26,2.82-2.82,2.82c-1.56,0-2.82-1.26-2.82-2.82Z"/>
              <path class="st8" d="M143.95,72.08c0,1.56,1.26,2.82,2.82,2.82,1.56,0,2.82-1.26,2.82-2.82,0-1.56-1.26-2.82-2.82-2.82s-2.82,1.26-2.82,2.82Z"/>
            </g>
            <g>
              <path class="st8" d="M146.77,72.45c-.21,0-.38-.17-.38-.38v-29.62c0-.21.17-.38.38-.38s.38.17.38.38v29.62c0,.21-.17.38-.38.38Z"/>
              <path class="st8" d="M143.95,42.46c0-1.56,1.26-2.82,2.82-2.82s2.82,1.26,2.82,2.82-1.26,2.82-2.82,2.82-2.82-1.26-2.82-2.82Z"/>
              <circle class="st8" cx="146.77" cy="72.08" r="2.82"/>
            </g>
            <g>
              <path class="st8" d="M146.77,42.83c-.06,0-.13-.02-.19-.05l-25.65-14.81c-.18-.1-.24-.33-.14-.51.1-.18.33-.24.51-.14l25.65,14.81c.18.1.24.33.14.51-.07.12-.2.19-.33.19Z"/>
              <path class="st8" d="M148.18,40.02c1.35.78,1.81,2.5,1.03,3.85-.78,1.35-2.5,1.81-3.85,1.03s-1.81-2.5-1.03-3.85,2.5-1.81,3.85-1.03Z"/>
              <path class="st8" d="M122.53,25.21c-1.35-.78-3.07-.32-3.85,1.03-.78,1.35-.32,3.07,1.03,3.85,1.35.78,3.07.32,3.85-1.03s.32-3.07-1.03-3.85Z"/>
            </g>
            <g>
              <path class="st8" d="M95.48,42.83c-.13,0-.26-.07-.33-.19-.1-.18-.04-.41.14-.51l25.65-14.81c.18-.1.41-.04.51.14.1.18.04.41-.14.51l-25.65,14.81c-.06.03-.12.05-.19.05Z"/>
              <path class="st8" d="M119.71,25.21c1.35-.78,3.07-.32,3.85,1.03s.32,3.07-1.03,3.85c-1.35.78-3.07.32-3.85-1.03-.78-1.35-.32-3.07,1.03-3.85Z"/>
              <path class="st8" d="M94.06,40.02c-1.35.78-1.81,2.5-1.03,3.85.78,1.35,2.5,1.81,3.85,1.03s1.81-2.5,1.03-3.85c-.78-1.35-2.5-1.81-3.85-1.03Z"/>
            </g>
            <g>
              <path class="st8" d="M95.48,72.45c-.21,0-.38-.17-.38-.38v-29.62c0-.21.17-.38.37-.38s.38.17.38.38v29.62c0,.21-.17.38-.37.38Z"/>
              <path class="st8" d="M92.65,42.46c0-1.56,1.26-2.82,2.82-2.82,1.56,0,2.82,1.26,2.82,2.82s-1.26,2.82-2.82,2.82c-1.56,0-2.82-1.26-2.82-2.82Z"/>
              <path class="st8" d="M92.66,72.08c0,1.56,1.26,2.82,2.82,2.82,1.56,0,2.82-1.26,2.82-2.82s-1.26-2.82-2.82-2.82-2.82,1.26-2.82,2.82Z"/>
            </g>
            <g>
              <path class="st8" d="M121.12,87.26c-.06,0-.13-.02-.19-.05l-25.64-14.81c-.18-.1-.24-.33-.14-.51.1-.18.33-.24.51-.14l25.64,14.81c.18.1.24.33.14.51-.07.12-.2.19-.33.19Z"/>
              <path class="st8" d="M94.07,74.52c-1.35-.78-1.81-2.5-1.03-3.85.78-1.35,2.5-1.81,3.85-1.03,1.35.78,1.81,2.5,1.03,3.85-.78,1.35-2.5,1.81-3.85,1.03Z"/>
              <path class="st8" d="M119.71,89.33c1.35.78,3.07.32,3.85-1.03.78-1.35.32-3.07-1.03-3.85-1.35-.78-3.07-.32-3.85,1.03-.78,1.35-.32,3.07,1.03,3.85Z"/>
            </g>
            <g>
              <path class="st8" d="M121.12,87.26c-.13,0-.26-.07-.33-.19-.1-.18-.04-.41.14-.51l25.65-14.81c.18-.1.41-.04.51.14.1.18.04.41-.14.51l-25.65,14.81c-.06.03-.12.05-.19.05Z"/>
              <path class="st8" d="M122.53,89.33c-1.35.78-3.07.32-3.85-1.03-.78-1.35-.32-3.07,1.03-3.85,1.35-.78,3.07-.32,3.85,1.03s.32,3.07-1.03,3.85Z"/>
              <path class="st8" d="M148.18,74.52c1.35-.78,1.81-2.5,1.03-3.85-.78-1.35-2.5-1.81-3.85-1.03-1.35.78-1.81,2.5-1.03,3.85.78,1.35,2.5,1.81,3.85,1.03Z"/>
            </g>
            <g>
              <path class="st8" d="M95.48,72.45c-.21,0-.38-.17-.38-.38v-29.62c0-.21.17-.38.38-.38s.38.17.38.38v29.62c0,.21-.17.38-.38.38Z"/>
              <path class="st8" d="M92.66,42.46c0-1.56,1.26-2.82,2.82-2.82s2.82,1.26,2.82,2.82-1.26,2.82-2.82,2.82-2.82-1.26-2.82-2.82Z"/>
              <circle class="st8" cx="95.48" cy="72.08" r="2.82"/>
            </g>
            <g>
              <path class="st8" d="M95.48,42.83c-.06,0-.13-.02-.19-.05l-25.65-14.81c-.18-.1-.24-.33-.14-.51.1-.18.33-.24.51-.14l25.65,14.81c.18.1.24.33.14.51-.07.12-.2.19-.33.19Z"/>
              <path class="st8" d="M96.89,40.02c1.35.78,1.81,2.5,1.03,3.85-.78,1.35-2.5,1.81-3.85,1.03s-1.81-2.5-1.03-3.85,2.5-1.81,3.85-1.03Z"/>
              <path class="st8" d="M71.24,25.21c-1.35-.78-3.07-.32-3.85,1.03-.78,1.35-.32,3.07,1.03,3.85,1.35.78,3.07.32,3.85-1.03.78-1.35.32-3.07-1.03-3.85Z"/>
            </g>
            <g>
              <path class="st8" d="M44.18,42.83c-.13,0-.26-.07-.33-.19-.1-.18-.04-.41.14-.51l25.65-14.81c.18-.1.41-.04.51.14.1.18.04.41-.14.51l-25.65,14.81c-.06.03-.12.05-.19.05Z"/>
              <path class="st8" d="M68.42,25.21c1.35-.78,3.07-.32,3.85,1.03s.32,3.07-1.03,3.85c-1.35.78-3.07.32-3.85-1.03-.78-1.35-.32-3.07,1.03-3.85Z"/>
              <path class="st8" d="M42.77,40.02c-1.35.78-1.81,2.5-1.03,3.85.78,1.35,2.5,1.81,3.85,1.03s1.81-2.5,1.03-3.85-2.5-1.81-3.85-1.03Z"/>
            </g>
            <g>
              <path class="st8" d="M44.18,72.45c-.21,0-.38-.17-.38-.38v-29.62c0-.21.17-.38.37-.38s.38.17.38.38v29.62c0,.21-.17.38-.37.38Z"/>
              <path class="st8" d="M41.36,42.46c0-1.56,1.26-2.82,2.82-2.82,1.56,0,2.82,1.26,2.82,2.82,0,1.56-1.26,2.82-2.82,2.82-1.56,0-2.82-1.26-2.82-2.82Z"/>
              <path class="st8" d="M41.36,72.08c0,1.56,1.26,2.82,2.82,2.82,1.56,0,2.82-1.26,2.82-2.82,0-1.56-1.26-2.82-2.82-2.82s-2.82,1.26-2.82,2.82Z"/>
            </g>
            <g>
              <path class="st8" d="M69.83,87.26c-.06,0-.13-.02-.19-.05l-25.64-14.81c-.18-.1-.24-.33-.14-.51.1-.18.33-.24.51-.14l25.64,14.81c.18.1.24.33.14.51-.07.12-.2.19-.33.19Z"/>
              <path class="st8" d="M42.78,74.52c-1.35-.78-1.81-2.5-1.03-3.85.78-1.35,2.5-1.81,3.85-1.03,1.35.78,1.81,2.5,1.03,3.85-.78,1.35-2.5,1.81-3.85,1.03Z"/>
              <path class="st8" d="M68.42,89.33c1.35.78,3.07.32,3.85-1.03.78-1.35.32-3.07-1.03-3.85-1.35-.78-3.07-.32-3.85,1.03-.78,1.35-.32,3.07,1.03,3.85Z"/>
            </g>
            <g>
              <path class="st8" d="M69.83,87.26c-.13,0-.26-.07-.33-.19-.1-.18-.04-.41.14-.51l25.65-14.81c.18-.1.41-.04.51.14.1.18.04.41-.14.51l-25.65,14.81c-.06.03-.12.05-.19.05Z"/>
              <path class="st8" d="M71.24,89.33c-1.35.78-3.07.32-3.85-1.03-.78-1.35-.32-3.07,1.03-3.85,1.35-.78,3.07-.32,3.85,1.03.78,1.35.32,3.07-1.03,3.85Z"/>
              <path class="st8" d="M96.89,74.52c1.35-.78,1.81-2.5,1.03-3.85-.78-1.35-2.5-1.81-3.85-1.03-1.35.78-1.81,2.5-1.03,3.85.78,1.35,2.5,1.81,3.85,1.03Z"/>
            </g>
            <g>
              <path class="st8" d="M44.19,72.45c-.21,0-.38-.17-.38-.38v-29.62c0-.21.17-.38.38-.38s.38.17.38.38v29.62c0,.21-.17.38-.38.38Z"/>
              <path class="st8" d="M41.37,42.46c0-1.56,1.26-2.82,2.82-2.82s2.82,1.26,2.82,2.82-1.26,2.82-2.82,2.82-2.82-1.26-2.82-2.82Z"/>
              <circle class="st8" cx="44.19" cy="72.08" r="2.82"/>
            </g>
            <g>
              <path class="st8" d="M44.19,42.83c-.06,0-.13-.02-.19-.05l-25.65-14.81c-.18-.1-.24-.33-.14-.51.1-.18.33-.24.51-.14l25.65,14.81c.18.1.24.33.14.51-.07.12-.2.19-.33.19Z"/>
              <path class="st8" d="M45.6,40.02c1.35.78,1.81,2.5,1.03,3.85-.78,1.35-2.5,1.81-3.85,1.03-1.35-.78-1.81-2.5-1.03-3.85.78-1.35,2.5-1.81,3.85-1.03Z"/>
              <path class="st8" d="M19.95,25.21c-1.35-.78-3.07-.32-3.85,1.03-.78,1.35-.32,3.07,1.03,3.85,1.35.78,3.07.32,3.85-1.03.78-1.35.32-3.07-1.03-3.85Z"/>
            </g>
            <g>
              <path class="st8" d="M146.77,42.83c-.06,0-.13-.02-.19-.05l-25.64-14.81c-.18-.1-.24-.33-.14-.51.1-.18.33-.24.51-.14l25.64,14.81c.18.1.24.33.14.51-.07.12-.2.19-.33.19Z"/>
              <path class="st8" d="M119.72,30.09c-1.35-.78-1.81-2.5-1.03-3.85.78-1.35,2.5-1.81,3.85-1.03,1.35.78,1.81,2.5,1.03,3.85-.78,1.35-2.5,1.81-3.85,1.03Z"/>
              <path class="st8" d="M145.36,44.9c1.35.78,3.07.32,3.85-1.03.78-1.35.32-3.07-1.03-3.85-1.35-.78-3.07-.32-3.85,1.03-.78,1.35-.32,3.07,1.03,3.85Z"/>
            </g>
            <g>
              <path class="st8" d="M69.83,28.03c-.21,0-.38-.17-.38-.38V-1.97c0-.21.17-.38.38-.38s.38.17.38.38v29.62c0,.21-.17.38-.38.38Z"/>
              <path class="st8" d="M67.01-1.97c0-1.56,1.26-2.82,2.82-2.82s2.82,1.26,2.82,2.82-1.26,2.82-2.82,2.82-2.82-1.26-2.82-2.82Z"/>
              <path class="st8" d="M67.01,27.65c0,1.56,1.26,2.82,2.82,2.82,1.56,0,2.82-1.26,2.82-2.82s-1.26-2.82-2.82-2.82-2.82,1.26-2.82,2.82Z"/>
            </g>
            <g>
              <path class="st8" d="M95.48,42.83c-.06,0-.13-.02-.19-.05l-25.64-14.81c-.18-.1-.24-.33-.14-.51.1-.18.33-.24.51-.14l25.64,14.81c.18.1.24.33.14.51-.07.12-.2.19-.33.19Z"/>
              <path class="st8" d="M68.43,30.09c-1.35-.78-1.81-2.5-1.03-3.85.78-1.35,2.5-1.81,3.85-1.03,1.35.78,1.81,2.5,1.03,3.85-.78,1.35-2.5,1.81-3.85,1.03Z"/>
              <path class="st8" d="M94.07,44.9c1.35.78,3.07.32,3.85-1.03.78-1.35.32-3.07-1.03-3.85-1.35-.78-3.07-.32-3.85,1.03-.78,1.35-.32,3.07,1.03,3.85Z"/>
            </g>
            <g>
              <path class="st8" d="M95.48,42.83c-.13,0-.26-.07-.33-.19-.1-.18-.04-.41.14-.51l25.65-14.81c.18-.1.41-.04.51.14.1.18.04.41-.14.51l-25.65,14.81c-.06.03-.12.05-.19.05Z"/>
              <path class="st8" d="M96.89,44.9c-1.35.78-3.07.32-3.85-1.03-.78-1.35-.32-3.07,1.03-3.85s3.07-.32,3.85,1.03c.78,1.35.32,3.07-1.03,3.85Z"/>
              <path class="st8" d="M122.54,30.09c1.35-.78,1.81-2.5,1.03-3.85s-2.5-1.81-3.85-1.03c-1.35.78-1.81,2.5-1.03,3.85.78,1.35,2.5,1.81,3.85,1.03Z"/>
            </g>
            <g>
              <path class="st8" d="M69.84,28.03c-.21,0-.38-.17-.38-.38V-1.97c0-.21.17-.38.38-.38s.38.17.38.38v29.62c0,.21-.17.38-.38.38Z"/>
              <path class="st8" d="M67.02-1.97c0-1.56,1.26-2.82,2.82-2.82s2.82,1.26,2.82,2.82-1.26,2.82-2.82,2.82-2.82-1.26-2.82-2.82Z"/>
              <path class="st8" d="M67.02,27.65c0,1.56,1.26,2.82,2.82,2.82s2.82-1.26,2.82-2.82-1.26-2.82-2.82-2.82-2.82,1.26-2.82,2.82Z"/>
            </g>
            <path class="st8" d="M71.25-4.41c1.35.78,1.81,2.5,1.03,3.85-.78,1.35-2.5,1.81-3.85,1.03-1.35-.78-1.81-2.5-1.03-3.85.78-1.35,2.5-1.81,3.85-1.03Z"/>
            <path class="st8" d="M17.13-4.41c-1.35.78-1.81,2.5-1.03,3.85.78,1.35,2.5,1.81,3.85,1.03,1.35-.78,1.81-2.5,1.03-3.85-.78-1.35-2.5-1.81-3.85-1.03Z"/>
            <g>
              <path class="st8" d="M18.54,28.03c-.21,0-.38-.17-.38-.38V-1.97c0-.21.17-.38.37-.38s.38.17.38.38v29.62c0,.21-.17.38-.37.38Z"/>
              <path class="st8" d="M15.72-1.97c0-1.56,1.26-2.82,2.82-2.82s2.82,1.26,2.82,2.82c0,1.56-1.26,2.82-2.82,2.82s-2.82-1.26-2.82-2.82Z"/>
              <path class="st8" d="M15.72,27.65c0,1.56,1.26,2.82,2.82,2.82,1.56,0,2.82-1.26,2.82-2.82s-1.26-2.82-2.82-2.82-2.82,1.26-2.82,2.82Z"/>
            </g>
            <g>
              <path class="st8" d="M44.19,42.83c-.06,0-.13-.02-.19-.05l-25.64-14.81c-.18-.1-.24-.33-.14-.51.1-.18.33-.24.51-.14l25.64,14.81c.18.1.24.33.14.51-.07.12-.2.19-.33.19Z"/>
              <path class="st8" d="M17.13,30.09c-1.35-.78-1.81-2.5-1.03-3.85s2.5-1.81,3.85-1.03c1.35.78,1.81,2.5,1.03,3.85-.78,1.35-2.5,1.81-3.85,1.03Z"/>
              <path class="st8" d="M42.78,44.9c1.35.78,3.07.32,3.85-1.03.78-1.35.32-3.07-1.03-3.85-1.35-.78-3.07-.32-3.85,1.03-.78,1.35-.32,3.07,1.03,3.85Z"/>
            </g>
            <g>
              <path class="st8" d="M44.19,42.83c-.13,0-.26-.07-.33-.19-.1-.18-.04-.41.14-.51l25.65-14.81c.18-.1.41-.04.51.14.1.18.04.41-.14.51l-25.65,14.81c-.06.03-.12.05-.19.05Z"/>
              <path class="st8" d="M45.6,44.9c-1.35.78-3.07.32-3.85-1.03-.78-1.35-.32-3.07,1.03-3.85s3.07-.32,3.85,1.03.32,3.07-1.03,3.85Z"/>
              <path class="st8" d="M71.25,30.09c1.35-.78,1.81-2.5,1.03-3.85-.78-1.35-2.5-1.81-3.85-1.03-1.35.78-1.81,2.5-1.03,3.85.78,1.35,2.5,1.81,3.85,1.03Z"/>
            </g>
            <g>
              <path class="st8" d="M18.54,28.03c-.21,0-.38-.17-.38-.38V-1.97c0-.21.17-.38.38-.38s.38.17.38.38v29.62c0,.21-.17.38-.38.38Z"/>
              <path class="st8" d="M15.72-1.97c0-1.56,1.26-2.82,2.82-2.82s2.82,1.26,2.82,2.82-1.26,2.82-2.82,2.82-2.82-1.26-2.82-2.82Z"/>
              <path class="st8" d="M15.72,27.65c0,1.56,1.26,2.82,2.82,2.82s2.82-1.26,2.82-2.82-1.26-2.82-2.82-2.82-2.82,1.26-2.82,2.82Z"/>
            </g>
            <path class="st8" d="M19.95-4.41c1.35.78,1.81,2.5,1.03,3.85-.78,1.35-2.5,1.81-3.85,1.03-1.35-.78-1.81-2.5-1.03-3.85s2.5-1.81,3.85-1.03Z"/>
            <path class="st8" d="M68.42.48c1.35.78,3.07.32,3.85-1.03.78-1.35.32-3.07-1.03-3.85-1.35-.78-3.07-.32-3.85,1.03-.78,1.35-.32,3.07,1.03,3.85Z"/>
            <path class="st8" d="M17.13.48c1.35.78,3.07.32,3.85-1.03.78-1.35.32-3.07-1.03-3.85-1.35-.78-3.07-.32-3.85,1.03-.78,1.35-.32,3.07,1.03,3.85Z"/>
            <path class="st8" d="M19.95.48c-1.35.78-3.07.32-3.85-1.03-.78-1.35-.32-3.07,1.03-3.85,1.35-.78,3.07-.32,3.85,1.03.78,1.35.32,3.07-1.03,3.85Z"/>
          </g>
          <g>
            <circle class="st5" cx="97.05" cy="162.86" r="116.33" transform="translate(-86.74 116.33) rotate(-45)"/>
            <circle class="st1" cx="97.05" cy="162.86" r="147.97"/>
          </g>
          <g>
            <circle class="st4" cx="474.62" cy="49.76" r="116.33" transform="translate(103.83 350.18) rotate(-45)"/>
            <circle class="st0" cx="474.62" cy="49.76" r="147.97"/>
          </g>
        </g>
      </g>
    </g>
  </g>
</svg>